SplineFontDB: 3.0
FontName: January-Regular
FullName: January Regular
FamilyName: January
Weight: Regular
Copyright: Copyright 2018, Flora Canou
UComments: "2017-11-21: Created with FontForge (http://fontforge.org) +AAoA-Version Alpha 14 (0.14.2) +AAoA-Made by Flora Canou"
Version: 0.14.2
ItalicAngle: 0
UnderlinePosition: -204
UnderlineWidth: 101
Ascent: 1457
Descent: 591
InvalidEm: 0
LayerCount: 2
Layer: 0 0 "Back" 1
Layer: 1 0 "Fore" 0
XUID: [1021 437 -1854233377 32630]
StyleMap: 0x0040
FSType: 0
OS2Version: 0
OS2_WeightWidthSlopeOnly: 0
OS2_UseTypoMetrics: 1
CreationTime: 1511268235
ModificationTime: 1540725657
PfmFamily: 33
TTFWeight: 400
TTFWidth: 5
LineGap: 184
VLineGap: 0
OS2TypoAscent: 0
OS2TypoAOffset: 1
OS2TypoDescent: 0
OS2TypoDOffset: 1
OS2TypoLinegap: 184
OS2WinAscent: 0
OS2WinAOffset: 1
OS2WinDescent: 0
OS2WinDOffset: 1
HheadAscent: 0
HheadAOffset: 1
HheadDescent: 0
HheadDOffset: 1
OS2CapHeight: 1566
OS2XHeight: 1000
OS2FamilyClass: 2048
OS2Vendor: 'PfEd'
Lookup: 1 0 0 "'c2sc' Capitals to Small Capitals" { "'c2sc' Capitals to Small Capitals"  } ['c2sc' ('DFLT' <'dflt' > 'grek' <'dflt' > 'latn' <'dflt' > ) ]
Lookup: 1 0 0 "'smcp' Lowercase to Small Capitals" { "'smcp' Lowercase to Small Capitals"  } ['smcp' ('DFLT' <'dflt' > 'grek' <'dflt' > 'latn' <'dflt' > ) ]
Lookup: 1 0 0 "'sups' Superscript lookup 0" { "'sups' Superscript lookup latin" ("sup") "'sups' Superscript lookup numerals" ("sup") } ['sups' ('DFLT' <'dflt' > ) ]
Lookup: 1 0 0 "'subs' Subscript" { "'subs' Subscript looup numerals" ("sub") } ['subs' ('DFLT' <'dflt' > 'grek' <'dflt' > 'latn' <'dflt' > ) ]
Lookup: 4 0 1 "'liga' Standard Ligatures" { "'liga' Standard Ligatures"  } ['liga' ('DFLT' <'dflt' > 'grek' <'dflt' > 'latn' <'dflt' > ) ]
Lookup: 4 0 0 "'dlig' Discretionary Ligatures" { "'dlig' Discretionary Ligatures"  } ['dlig' ('DFLT' <'dflt' > 'grek' <'dflt' > 'latn' <'dflt' > ) ]

StartChar: o
Encoding: 111 111 0
Width: 1216
VWidth: 0
Flags: W
HStem: -20 120<441.334 774.666> 900 120<441.334 774.666>
VStem: 119 125<317.257 682.743> 972 125<317.257 682.743>
AnchorPoint: "bottom" 608 0 basechar 0
AnchorPoint: "center" 608 500 basechar 0
AnchorPoint: "top" 608 1190 basechar 0
LayerCount: 2
Fore
SplineSet
608 900 m 3
 358 900 244 660 244 500 c 3
 244 340 358 100 608 100 c 3
 858 100 972 340 972 500 c 3
 972 660 858 900 608 900 c 3
608 1020 m 3
 959 1020 1097 720 1097 500 c 3
 1097 280 959 -20 608 -20 c 3
 257 -20 119 280 119 500 c 3
 119 720 257 1020 608 1020 c 3
EndSplineSet
Validated: 1
Substitution2: "'sups' Superscript lookup latin" o.sup
EndChar

StartChar: n
Encoding: 110 110 1
Width: 1226
VWidth: 0
Flags: W
HStem: 890 120<480.672 825.441>
VStem: 161 125<0 674.803 758 947> 961 125<0 733.253>
AnchorPoint: "bottom" 624 0 basechar 0
AnchorPoint: "top" 624 1190 basechar 0
LayerCount: 2
Fore
SplineSet
161 947 m 1
 286 1000 l 1
 286 758 l 1
 286 758 317 1010 650 1010 c 3
 975 1010 1086 792 1086 490 c 2
 1086 0 l 1
 961 0 l 1
 961 490 l 2
 961 748 875 890 650 890 c 3
 400 890 286 660 286 490 c 2
 286 0 l 1
 161 0 l 1
 161 947 l 1
EndSplineSet
Validated: 1
EndChar

StartChar: h
Encoding: 104 104 2
Width: 1226
VWidth: 0
Flags: W
HStem: 890 120<480.672 825.441> 1618 20G<237.923 286>
VStem: 161 125<0 674.803 758 1586> 961 125<0 733.253>
AnchorPoint: "bottom" 624 0 basechar 0
AnchorPoint: "top" 624 1706 basechar 0
LayerCount: 2
Fore
SplineSet
161 1586 m 1
 286 1638 l 1
 286 758 l 1
 286 758 317 1010 650 1010 c 3
 975 1010 1086 792 1086 490 c 2
 1086 0 l 1
 961 0 l 1
 961 490 l 2
 961 749 875 890 650 890 c 3
 400 890 286 660 286 490 c 2
 286 0 l 1
 161 0 l 1
 161 1586 l 1
EndSplineSet
Validated: 1
EndChar

StartChar: u
Encoding: 117 117 3
Width: 1226
VWidth: 0
Flags: W
HStem: -10 120<400.559 745.328> 980 20G<140 265 940 1065>
VStem: 140 125<266.747 1000> 940 125<0 242 325.197 1000>
AnchorPoint: "center" 603 500 basechar 0
AnchorPoint: "bottom" 603 0 basechar 0
AnchorPoint: "top" 603 1190 basechar 0
LayerCount: 2
Fore
SplineSet
1065 0 m 1
 940 0 l 1
 940 242 l 1
 940 242 909 -10 576 -10 c 3
 251 -10 140 208 140 510 c 2
 140 1000 l 1
 265 1000 l 1
 265 510 l 2
 265 252 351 110 576 110 c 3
 826 110 940 340 940 510 c 2
 940 1000 l 1
 1065 1000 l 1
 1065 0 l 1
EndSplineSet
Validated: 1
EndChar

StartChar: l
Encoding: 108 108 4
Width: 664
VWidth: 0
Flags: W
HStem: 0 125<353.866 625> 1618 20G<228.923 277>
VStem: 152 125<201.866 1586>
AnchorPoint: "bottom" 401 0 basechar 0
AnchorPoint: "top" 214 1706 basechar 0
LayerCount: 2
Fore
SplineSet
277 335 m 2
 277 184 382 125 487 125 c 2
 625 125 l 1
 625 0 l 1
 487 0 l 2
 277 0 152 125 152 335 c 2
 152 1586 l 1
 277 1638 l 1
 277 335 l 2
EndSplineSet
Validated: 513
Substitution2: "'ss05' Style Set 5 geometric" l.1
EndChar

StartChar: i
Encoding: 105 105 5
Width: 447
VWidth: 0
Flags: W
HStem: 980 20G<161 286> 1190 172<154.102 293.701>
VStem: 143 161<1201.17 1352.45> 161 125<0 1000>
AnchorPoint: "bottom" 223 0 basechar 0
AnchorPoint: "top" 223 1190 basechar 0
LayerCount: 2
Fore
SplineSet
143 1276 m 3xe0
 143 1330 186 1362 223 1362 c 3
 260 1362 304 1332 304 1276 c 3
 304 1223 260 1190 223 1190 c 3
 186 1190 143 1228 143 1276 c 3xe0
286 1000 m 1xd0
 286 0 l 1
 161 0 l 1
 161 1000 l 1
 286 1000 l 1xd0
EndSplineSet
Validated: 1
EndChar

StartChar: j
Encoding: 106 106 6
Width: 447
VWidth: 0
Flags: W
HStem: -591 125<-187 84.1337> 980 20G<161 286> 1190 172<154.102 293.701>
VStem: 143 161<1201.17 1352.45> 161 125<-389.134 1000>
AnchorPoint: "bottom" 47 -591 basechar 0
AnchorPoint: "top" 223 1190 basechar 0
LayerCount: 2
Fore
SplineSet
143 1276 m 3xf0
 143 1330 186 1362 223 1362 c 3
 260 1362 304 1332 304 1276 c 3
 304 1223 260 1190 223 1190 c 3
 186 1190 143 1228 143 1276 c 3xf0
161 -256 m 2xe8
 161 1000 l 1
 286 1000 l 1
 286 -256 l 2
 286 -466 161 -591 -49 -591 c 2
 -187 -591 l 1
 -187 -466 l 1
 -49 -466 l 2
 56 -466 161 -407 161 -256 c 2xe8
EndSplineSet
Validated: 513
Substitution2: "'ss05' Style Set 5 geometric" j.1
EndChar

StartChar: e
Encoding: 101 101 7
Width: 1186
VWidth: 0
Flags: W
HStem: -20 120<442.485 806.78> 440 120<249 942> 900 120<442.485 760.81>
VStem: 119 130<307.319 440 560 692.681>
CounterMasks: 1 e0
AnchorPoint: "center" 608 500 basechar 0
AnchorPoint: "bottom" 608 0 basechar 0
AnchorPoint: "top" 608 1190 basechar 0
LayerCount: 2
Back
SplineSet
608 100 m 3
 858 100 972 340 972 500 c 3
 972 660 858 900 608 900 c 1027
608 1020 m 3
 959 1020 1097 720 1097 500 c 3
 1097 280 959 -20 608 -20 c 1027
EndSplineSet
Fore
SplineSet
608 100 m 3
 681 100 780 129 878 174 c 1
 924 48 l 1
 813 1 696 -20 608 -20 c 3
 257 -20 119 280 119 500 c 3
 119 720 257 1020 608 1020 c 3
 934 1020 1070 720 1070 500 c 3
 1070 481 1069 460 1067 440 c 1
 249 440 l 1
 273 286 388 100 608 100 c 3
942 560 m 1
 928 714 803 900 608 900 c 3
 388 900 273 714 249 560 c 1
 942 560 l 1
EndSplineSet
Validated: 1
EndChar

StartChar: c
Encoding: 99 99 8
Width: 1012
VWidth: 0
Flags: W
HStem: -20 120<441.334 800.757> 900 120<441.334 795.743>
VStem: 119 125<317.257 682.743>
AnchorPoint: "center" 608 500 basechar 0
AnchorPoint: "top" 608 1190 basechar 0
AnchorPoint: "bottom" 608 0 basechar 0
LayerCount: 2
Fore
SplineSet
868 824 m 1
 780 867 681 900 608 900 c 3
 358 900 244 660 244 500 c 3
 244 340 358 100 608 100 c 3
 681 100 780 129 868 174 c 1
NamedP: "lowerterminal"
 914 48 l 1
 813 1 696 -20 608 -20 c 3
 257 -20 119 280 119 500 c 3
 119 720 257 1020 608 1020 c 3
 697 1020 819 995 920 949 c 1
 868 824 l 1
EndSplineSet
Validated: 1
EndChar

StartChar: t
Encoding: 116 116 9
Width: 788
VWidth: 0
Flags: W
HStem: 0 125<412.866 684> 880 120<58 211 336 684>
VStem: 211 125<201.866 880 1000 1226>
AnchorPoint: "top" 371 1346 basechar 0
AnchorPoint: "bottom" 450 0 basechar 0
LayerCount: 2
Fore
SplineSet
336 880 m 1
 336 335 l 2
 336 184 441 125 546 125 c 2
 684 125 l 1
 684 0 l 1
 546 0 l 2
 336 0 211 125 211 335 c 2
 211 880 l 1
 58 880 l 1
 58 1000 l 1
 211 1000 l 1
 211 1226 l 1
 336 1278 l 1
 336 1000 l 1
 684 1000 l 1
 684 880 l 1
 336 880 l 1
EndSplineSet
Validated: 513
Substitution2: "'ss05' Style Set 5 geometric" t.1
EndChar

StartChar: f
Encoding: 102 102 10
Width: 788
VWidth: 0
Flags: W
HStem: 880 120<58 211 336 684> 1461 125<412.866 684>
VStem: 211 125<0 880 1000 1384.13>
AnchorPoint: "bottom" 274 0 basechar 0
AnchorPoint: "top" 448 1706 basechar 0
LayerCount: 2
Fore
SplineSet
336 1000 m 1
 684 1000 l 1
 684 880 l 1
 336 880 l 1
 336 0 l 1
 211 0 l 1
 211 880 l 1
 58 880 l 1
 58 1000 l 1
 211 1000 l 1
 211 1251 l 2
 211 1461 336 1586 546 1586 c 2
 684 1586 l 1
 684 1461 l 1
 546 1461 l 2
 441 1461 336 1402 336 1251 c 2
 336 1000 l 1
EndSplineSet
Validated: 1
Substitution2: "'ss06' Style Set 6 f.hook" florin
EndChar

StartChar: d
Encoding: 100 100 11
Width: 1258
VWidth: 0
Flags: W
HStem: -20 120<441.334 777.328> 900 120<441.334 777.328> 1618 20G<972 1097>
VStem: 119 125<317.257 682.743> 972 125<0 242 319.639 680.361 758 1638>
AnchorPoint: "bottom" 608 0 basechar 0
AnchorPoint: "top" 608 1706 basechar 0
LayerCount: 2
Fore
SplineSet
972 758 m 9
 972 1638 l 1
 1097 1638 l 1
 1097 0 l 1
 972 0 l 1
 972 242 l 1
 972 242 941 -20 608 -20 c 3
 257 -20 119 280 119 500 c 3
 119 720 257 1020 608 1020 c 3
 941 1020 972 758 972 758 c 9
608 900 m 3
 358 900 244 660 244 500 c 3
 244 340 358 100 608 100 c 3
 858 100 972 340 972 500 c 3
 972 660 858 900 608 900 c 3
EndSplineSet
Validated: 1
EndChar

StartChar: a
Encoding: 97 97 12
Width: 1258
VWidth: 0
Flags: W
HStem: -20 120<441.334 777.328> 900 120<441.334 777.328> 980 20G<972 1097>
VStem: 119 125<317.257 682.743> 972 125<0 242 319.639 680.361 758 1000>
AnchorPoint: "center" 608 500 basechar 0
AnchorPoint: "bottom" 608 0 basechar 0
AnchorPoint: "top" 608 1190 basechar 0
LayerCount: 2
Fore
SplineSet
972 758 m 1xd8
 972 1000 l 1
 1097 1000 l 1xb8
 1097 0 l 1
 972 0 l 1
 972 242 l 1
 972 242 941 -20 608 -20 c 3
 257 -20 119 280 119 500 c 3
 119 720 257 1020 608 1020 c 3
 941 1020 972 758 972 758 c 1xd8
608 900 m 3xd8
 358 900 244 660 244 500 c 3
 244 340 358 100 608 100 c 3
 858 100 972 340 972 500 c 3
 972 660 858 900 608 900 c 3xd8
EndSplineSet
Validated: 513
Substitution2: "'ss03' Style Set 3 a.1" a.1
Substitution2: "'sups' Superscript lookup latin" a.sup
EndChar

StartChar: b
Encoding: 98 98 13
Width: 1258
VWidth: 0
Flags: W
HStem: -20 120<480.672 816.666> 900 120<480.672 816.666> 1618 20G<237.923 286>
VStem: 161 125<0 242 319.639 680.361 758 1586> 1014 125<317.257 682.743>
AnchorPoint: "bottom" 650 0 basechar 0
AnchorPoint: "top" 650 1706 basechar 0
LayerCount: 2
Fore
SplineSet
286 758 m 17
 286 758 317 1020 650 1020 c 3
 1001 1020 1139 720 1139 500 c 3
 1139 280 1001 -20 650 -20 c 3
 317 -20 286 242 286 242 c 1
 286 0 l 1
 161 0 l 1
 161 1586 l 1
 286 1638 l 1
 286 758 l 17
650 900 m 3
 400 900 286 660 286 500 c 3
 286 340 400 100 650 100 c 3
 900 100 1014 340 1014 500 c 3
 1014 660 900 900 650 900 c 3
EndSplineSet
Validated: 1
EndChar

StartChar: q
Encoding: 113 113 14
Width: 1258
VWidth: 0
Flags: W
HStem: -20 120<441.334 777.328> 900 120<441.334 777.328> 980 20G<972 1097>
VStem: 119 125<317.257 682.743> 972 125<-585 242 319.639 680.361 758 1000>
AnchorPoint: "bottom" 608 -585 basechar 0
AnchorPoint: "top" 608 1190 basechar 0
LayerCount: 2
Fore
SplineSet
972 242 m 1xb8
 972 242 941 -20 608 -20 c 3
 257 -20 119 280 119 500 c 3
 119 720 257 1020 608 1020 c 3xd8
 941 1020 972 758 972 758 c 1
 972 1000 l 1
 1097 1000 l 1
 1097 -585 l 1
 972 -585 l 1
 972 242 l 1xb8
608 100 m 3
 858 100 972 340 972 500 c 3
 972 660 858 900 608 900 c 3
 358 900 244 660 244 500 c 3
 244 340 358 100 608 100 c 3
EndSplineSet
Validated: 1
EndChar

StartChar: p
Encoding: 112 112 15
Width: 1258
VWidth: 0
Flags: W
HStem: -20 120<480.672 816.666> 900 120<480.672 816.666> 980 20G<237.923 286>
VStem: 161 125<-585 242 319.639 680.361 758 948> 1014 125<317.257 682.743>
AnchorPoint: "bottom" 650 -585 basechar 0
AnchorPoint: "top" 650 1190 basechar 0
LayerCount: 2
Fore
SplineSet
286 242 m 1xd8
 286 -585 l 1
 161 -585 l 1
 161 948 l 1
 286 1000 l 1xb8
 286 758 l 1
 286 758 317 1020 650 1020 c 3
 1001 1020 1139 720 1139 500 c 3
 1139 280 1001 -20 650 -20 c 3
 317 -20 286 242 286 242 c 1xd8
650 100 m 3
 900 100 1014 340 1014 500 c 3
 1014 660 900 900 650 900 c 3xd8
 400 900 286 660 286 500 c 3
 286 340 400 100 650 100 c 3
EndSplineSet
Validated: 1
EndChar

StartChar: m
Encoding: 109 109 16
Width: 1776
VWidth: 0
Flags: W
HStem: 890 120<428.98 743.796 1094.03 1400.87>
VStem: 161 125<0 723.293 758 947> 836 125<0 737.693> 1511 125<0 755.415>
CounterMasks: 1 70
AnchorPoint: "bottom" 899 0 basechar 0
AnchorPoint: "top" 899 1190 basechar 0
LayerCount: 2
Fore
SplineSet
588 1010 m 3
 836 1010 912 896 912 758 c 1
 912 896 1039 1010 1263 1010 c 3
 1542 1010 1636 792 1636 490 c 2
 1636 0 l 1
 1511 0 l 1
 1511 490 l 2
 1511 747 1444 890 1263 890 c 3
 1046 890 961 748 961 490 c 2
 961 0 l 1
 836 0 l 1
 836 490 l 2
 836 748 799 890 588 890 c 3
 338 890 286 660 286 490 c 2
 286 0 l 1
 161 0 l 1
 161 947 l 1
 286 1000 l 1
 286 758 l 1
 286 758 286 1010 588 1010 c 3
EndSplineSet
Validated: 1
EndChar

StartChar: r
Encoding: 114 114 17
Width: 737
VWidth: 0
Flags: W
HStem: 890 120<482.575 650>
VStem: 161 125<0 674.803 758 947>
AnchorPoint: "bottom" 405 0 basechar 0
AnchorPoint: "top" 405 1190 basechar 0
LayerCount: 2
Fore
SplineSet
650 890 m 1
 400 890 286 660 286 490 c 2
 286 0 l 1
 161 0 l 1
 161 947 l 1
 286 1000 l 1
 286 758 l 1
 286 758 318 1010 650 1010 c 1
 650 890 l 1
EndSplineSet
Validated: 513
Substitution2: "'smcp' Lowercase to Small Capitals" r.sc
EndChar

StartChar: period
Encoding: 46 46 18
Width: 640
VWidth: 0
Flags: W
HStem: 0 192<298.881 461.119>
VStem: 284 192<14.8805 177.119>
LayerCount: 2
Fore
SplineSet
284 96 m 3
 284 150 326 192 380 192 c 3
 434 192 476 150 476 96 c 3
 476 42 434 0 380 0 c 3
 326 0 284 42 284 96 c 3
EndSplineSet
Validated: 1
EndChar

StartChar: H
Encoding: 72 72 19
Width: 1547
VWidth: 0
Flags: W
HStem: -2 21G<161 286 1261 1386> 760 120<286 1261> 1546 20G<161 286 1261 1386>
VStem: 161 125<-2 760 880 1566> 1261 125<-2 760 880 1566>
AnchorPoint: "top" 774 1706 basechar 0
AnchorPoint: "bottom" 774 0 basechar 0
LayerCount: 2
Fore
SplineSet
161 -2 m 1
 161 1566 l 1
 286 1566 l 1
 286 880 l 1
 1261 880 l 1
 1261 1566 l 1
 1386 1566 l 1
 1386 -2 l 1
 1261 -2 l 1
 1261 760 l 1
 286 760 l 1
 286 -2 l 1
 161 -2 l 1
EndSplineSet
Validated: 1
EndChar

StartChar: M
Encoding: 77 77 20
Width: 1908
VWidth: 0
Flags: W
HStem: -2 21G<161 286> 1546 20G<161 296.333 1611.67 1747>
VStem: 161 125<-2 1293> 1622 125<0 1293>
AnchorPoint: "top" 954 1706 basechar 0
AnchorPoint: "bottom" 954 0 basechar 0
LayerCount: 2
Back
SplineSet
463 1000 m 1
 598 1000 l 1
 954 135 l 1
 1309 1000 l 1
 1445 1000 l 1
 1022 0 l 1
 881 0 l 1
 463 1000 l 1
EndSplineSet
Fore
SplineSet
161 -2 m 1
 161 1566 l 1
 286 1566 l 1
 954 273 l 1
 1622 1566 l 1
 1747 1566 l 1
 1747 0 l 1
 1622 0 l 1
 1622 1293 l 1
 954 0 l 1
 286 1293 l 1
 286 -2 l 1
 161 -2 l 1
EndSplineSet
Validated: 1
EndChar

StartChar: I
Encoding: 73 73 21
Width: 447
VWidth: 0
Flags: W
HStem: -2 21G<161 286> 1546 20G<161 286>
VStem: 161 125<-2 1566>
AnchorPoint: "bottom" 223 0 basechar 0
AnchorPoint: "top" 223 1706 basechar 0
LayerCount: 2
Fore
SplineSet
161 -2 m 1
 161 1566 l 1
 286 1566 l 1
 286 -2 l 1
 161 -2 l 1
EndSplineSet
Validated: 1
Substitution2: "'ss01' Style Set I.1" I.1
EndChar

StartChar: s
Encoding: 115 115 23
Width: 958
VWidth: 0
Flags: W
HStem: -24 124<261.257 664.185> 900 124<293.405 656.743>
VStem: 106 125<661.863 844.126> 727 125<159.097 351.866>
AnchorPoint: "center" 459 500 basechar 0
AnchorPoint: "top" 459 1190 basechar 0
AnchorPoint: "bottom" 459 0 basechar 0
LayerCount: 2
Back
SplineSet
189 176 m 1
 277 133 376 100 449 100 c 3
 699 100 813 340 813 500 c 3
 813 660 699 900 449 900 c 3
 375.993164062 900 277 871 189 826 c 1
NamedP: "868, 174"
 143 952 l 1
 244 999 361 1020 449 1020 c 3
 800 1020 938 700 938 500 c 3
 938 300 800 -20 449 -20 c 3
 359.994140625 -20 238 5 137 51 c 1
 189 176 l 1
729 824 m 1
 641 867 542 900 469 900 c 3
 219 900 105 660 105 500 c 3
 105 340 219 100 469 100 c 3
 542.006835938 100 641 129 729 174 c 1
NamedP: "868, 174"
 775 48 l 1
 674 1 557 -20 469 -20 c 3
 118 -20 -20 300 -20 500 c 3
 -20 700 118 1020 469 1020 c 3
 558.005859375 1020 680 995 781 949 c 1
 729 824 l 1
EndSplineSet
Fore
SplineSet
469 575 m 0
 751 507 852 408 852 235 c 3
 852 42 650 -24 449 -24 c 3
 360 -24 238 5 137 51 c 1
 189 176 l 1
 277 133 376 100 449 100 c 3
 589 100 727 143 727 235 c 3
 727 328 676 401 469 450 c 0
 186 517 106 642 106 765 c 3
 106 917 270 1024 469 1024 c 3
 558 1024 680 995 781 949 c 1
 729 824 l 1
 641 867 542 900 469 900 c 3
 330 900 231 839 231 765 c 3
 231 722 236 631 469 575 c 0
EndSplineSet
Validated: 1
Substitution2: "'smcp' Lowercase to Small Capitals" s.sc
EndChar

StartChar: v
Encoding: 118 118 24
Width: 1146
VWidth: 0
Flags: W
HStem: 980 20G<82 225.231 919.792 1064>
AnchorPoint: "bottom" 573 0 basechar 0
AnchorPoint: "top" 573 1190 basechar 0
LayerCount: 2
Back
SplineSet
1035 0 m 1
 910 0 l 1
 910 242 l 2
 910 242 879 -10 546 -10 c 0
 195 -10 110 198 110 500 c 2
 110 500 110 500 110 1000 c 1
 235 1000 110 1000 235 1000 c 1
 235 499 235 499 235 499 c 2
 235 241 296 110 546 110 c 0
 796 110 910 350 910 502 c 2
 910 1000 l 1
 1035 1000 910 1000 1035 1000 c 1
 1035 0 l 1
EndSplineSet
Fore
SplineSet
82 1000 m 1
 217 1000 l 1
 573 135 l 1
 928 1000 l 1
 1064 1000 l 1
 641 0 l 1
 500 0 l 1
 82 1000 l 1
EndSplineSet
Validated: 1
EndChar

StartChar: y
Encoding: 121 121 25
Width: 1146
VWidth: 0
Flags: W
HStem: -591 125<45 299.876> 980 20G<82 225.231 919.792 1064>
AnchorPoint: "bottom" 573 -591 basechar 0
AnchorPoint: "top" 573 1190 basechar 0
LayerCount: 2
Fore
SplineSet
518 -291 m 2
 451 -450 391 -591 183 -591 c 2
 45 -591 l 1
 45 -466 l 1
 183 -466 l 2
 276 -466 331 -415 383 -291 c 2
 502 -5 l 1
 82 1000 l 1
 217 1000 l 1
 573 135 l 1
 928 1000 l 1
 1064 1000 l 1
 518 -291 l 2
EndSplineSet
Validated: 1
EndChar

StartChar: w
Encoding: 119 119 26
Width: 1721
VWidth: 0
Flags: W
HStem: 980 20G<85 223.674 851.721 868.256 1496.3 1636>
AnchorPoint: "bottom" 860 0 basechar 0
AnchorPoint: "top" 860 1190 basechar 0
LayerCount: 2
Fore
SplineSet
85 1000 m 1
 217 1000 l 1
 504 140 l 1
 860 1000 l 1
 1215 140 l 1
 1503 1000 l 1
 1636 1000 l 1
 1283 0 l 1
 1142 0 l 1
 860 706 l 1
 572 0 l 1
 431 0 l 1
 85 1000 l 1
EndSplineSet
Validated: 1
EndChar

StartChar: g
Encoding: 103 103 27
Width: 1258
VWidth: 0
Flags: W
HStem: -591 120<316.257 731.599> -20 120<441.334 777.328> 900 120<441.334 777.328> 980 20G<972 1097>
VStem: 119 125<317.257 682.743> 972 125<-245.844 242 319.639 680.361 758 1000>
AnchorPoint: "bottom" 608 -591 basechar 0
AnchorPoint: "top" 608 1190 basechar 0
LayerCount: 2
Fore
SplineSet
608 100 m 3xec
 858 100 972 340 972 500 c 3
 972 660 858 900 608 900 c 3
 358 900 244 660 244 500 c 3
 244 340 358 100 608 100 c 3xec
972 242 m 1
 972 242 941 -20 608 -20 c 3
 257 -20 119 280 119 500 c 3
 119 720 257 1020 608 1020 c 3xec
 941 1020 972 758 972 758 c 1
 972 1000 l 1
 1097 1000 l 1xdc
 1097 -70 l 2
 1097 -268 972 -591 504 -591 c 3
 415 -591 293 -566 192 -520 c 1
 244 -395 l 1
 332 -438 431 -471 504 -471 c 3
 868 -471 972 -228 972 -70 c 2
 972 242 l 1
EndSplineSet
Validated: 1
EndChar

StartChar: z
Encoding: 122 122 28
Width: 1012
VWidth: 0
Flags: W
HStem: 5 120<261 906> 875 120<111 751>
AnchorPoint: "bottom" 506 0 basechar 0
AnchorPoint: "top" 506 1190 basechar 0
LayerCount: 2
Fore
SplineSet
106 123 m 1
 751 875 l 1
 111 875 l 1
 111 995 l 1
 906 995 l 1
 906 877 l 1
 261 125 l 1
 906 125 l 1
 906 5 l 1
 106 5 l 1
 106 123 l 1
EndSplineSet
Validated: 1
EndChar

StartChar: x
Encoding: 120 120 29
Width: 1130
VWidth: 0
Flags: W
HStem: 980 20G<91 256.777 873.32 1039>
AnchorPoint: "bottom" 566 0 basechar 0
AnchorPoint: "top" 566 1190 basechar 0
LayerCount: 2
Fore
SplineSet
91 1000 m 1
 241 1000 l 1
 566 588 l 1
 889 1000 l 1
 1039 1000 l 1
 643 500 l 1
 1039 0 l 1
 889 0 l 1
 566 414 l 1
 241 0 l 1
 91 0 l 1
 487 500 l 1
 91 1000 l 1
EndSplineSet
Validated: 1
EndChar

StartChar: comma
Encoding: 44 44 30
Width: 640
VWidth: 0
Flags: W
HStem: -392 566
VStem: 310 140<-90.5417 174>
LayerCount: 2
Back
SplineSet
284 96 m 3
 284 150 326 192 380 192 c 3
 434 192 476 150 476 96 c 3
 476 42 434 0 380 0 c 3
 326 0 284 42 284 96 c 3
EndSplineSet
Fore
SplineSet
300 -392 m 1
 210 -392 l 1
 210 -392 310 -47 310 174 c 1
 450 174 l 1
 450 -47 300 -392 300 -392 c 1
EndSplineSet
Validated: 1
EndChar

StartChar: k
Encoding: 107 107 31
Width: 1012
VWidth: 0
Flags: W
HStem: 980 20G<766.798 957> 1618 20G<237.923 286>
VStem: 161 125<0 502 504 1586>
AnchorPoint: "bottom" 561 0 basechar 0
AnchorPoint: "top" 561 1706 basechar 0
LayerCount: 2
Fore
SplineSet
286 0 m 1
 161 0 l 1
 161 1586 l 1
 286 1638 l 1
 286 504 l 1
 787 1000 l 1
 957 1000 l 1
 456 503 l 1
 963 0 l 1
 793 0 l 1
 286 502 l 1
 286 0 l 1
EndSplineSet
Validated: 1
EndChar

StartChar: N
Encoding: 78 78 32
Width: 1547
VWidth: 0
Flags: W
HStem: -2 21G<161 286 1246.64 1386> 1546 20G<161 300.359 1261 1386>
VStem: 161 125<-2 1356> 1261 125<208 1566>
AnchorPoint: "bottom" 774 0 basechar 0
AnchorPoint: "top" 774 1706 basechar 0
LayerCount: 2
Fore
SplineSet
161 -2 m 1
 161 1566 l 1
 286 1566 l 1
 1261 208 l 1
 1261 1566 l 1
 1386 1566 l 1
 1386 -2 l 1
 1261 -2 l 1
 286 1356 l 1
 286 -2 l 1
 161 -2 l 1
EndSplineSet
Validated: 1
EndChar

StartChar: T
Encoding: 84 84 33
Width: 1303
VWidth: 0
Flags: W
HStem: -2 21G<589 714> 1441 120<39 589 714 1264>
VStem: 589 125<-2 1441>
AnchorPoint: "center" 652 783 basechar 0
AnchorPoint: "top" 652 1706 basechar 0
AnchorPoint: "bottom" 652 0 basechar 0
LayerCount: 2
Fore
SplineSet
39 1441 m 1
 39 1561 l 1
 1264 1561 l 1
 1264 1441 l 1
 714 1441 l 1
 714 -2 l 1
 589 -2 l 1
 589 1441 l 1
 39 1441 l 1
EndSplineSet
Validated: 1
EndChar

StartChar: L
Encoding: 76 76 34
Width: 964
VWidth: 0
Flags: W
HStem: 5 120<286 900> 1546 20G<161 286>
VStem: 161 125<125 1566>
AnchorPoint: "top" 529 1706 basechar 0
AnchorPoint: "bottom" 529 0 basechar 0
LayerCount: 2
Back
SplineSet
900 1561 m 5
 900 1441 l 5
 286 1441 l 5
 286 880 l 5
 894 880 l 5
 894 760 l 5
 286 760 l 5
 286 125 l 5
 900 125 l 5
 900 5 l 5
 161 5 l 5
 161 1561 l 5
 900 1561 l 5
EndSplineSet
Fore
SplineSet
900 125 m 1
 900 5 l 1
 161 5 l 1
 161 1566 l 1
 286 1566 l 1
 286 125 l 1
 900 125 l 1
EndSplineSet
Validated: 1
EndChar

StartChar: E
Encoding: 69 69 35
Width: 1004
VWidth: 0
Flags: W
HStem: 5 120<286 900> 760 120<286 894> 1441 120<286 900>
VStem: 161 125<125 760 880 1441>
AnchorPoint: "center" 529 783 basechar 0
AnchorPoint: "bottom" 529 0 basechar 0
AnchorPoint: "top" 529 1706 basechar 0
LayerCount: 2
Fore
SplineSet
900 1561 m 1
 900 1441 l 1
 286 1441 l 1
 286 880 l 1
 894 880 l 1
 894 760 l 1
 286 760 l 1
 286 125 l 1
 900 125 l 1
 900 5 l 1
 161 5 l 1
 161 1561 l 1
 900 1561 l 1
EndSplineSet
Validated: 1
EndChar

StartChar: F
Encoding: 70 70 36
Width: 1004
VWidth: 0
Flags: W
HStem: -2 21G<161 286> 760 120<286 894> 1441 120<286 900>
VStem: 161 125<-2 760 880 1441>
AnchorPoint: "top" 529 1706 basechar 0
AnchorPoint: "bottom" 529 0 basechar 0
LayerCount: 2
Fore
SplineSet
161 -2 m 1
 161 1561 l 1
 900 1561 l 1
 900 1441 l 1
 286 1441 l 1
 286 880 l 1
 894 880 l 1
 894 760 l 1
 286 760 l 1
 286 -2 l 1
 161 -2 l 1
EndSplineSet
Validated: 1
EndChar

StartChar: O
Encoding: 79 79 37
Width: 1824
VWidth: 0
Flags: W
HStem: -20 120<676.944 1147.06> 1466 120<676.944 1147.06>
VStem: 119 125<546.563 1019.44> 1580 125<546.563 1019.44>
AnchorPoint: "bottom" 912 0 basechar 0
AnchorPoint: "center" 912 783 basechar 0
AnchorPoint: "top" 912 1706 basechar 0
LayerCount: 2
Back
SplineSet
119 0 m 1
 119 1566 l 1
 244 1566 l 1
 912 273 l 1
 1580 1566 l 1
 1705 1566 l 1
 1705 0 l 1
 1580 0 l 1
 1580 1293 l 1
 912 0 l 1
 244 1293 l 1
 244 0 l 1
 119 0 l 1
EndSplineSet
Fore
SplineSet
119 783 m 3
 119 1229 466 1586 912 1586 c 3
 1358 1586 1705 1229 1705 783 c 3
 1705 337 1358 -20 912 -20 c 3
 466 -20 119 337 119 783 c 3
912 1466 m 3
 539 1466 244 1156 244 783 c 3
 244 410 539 100 912 100 c 3
 1285 100 1580 410 1580 783 c 3
 1580 1156 1285 1466 912 1466 c 3
EndSplineSet
Validated: 1
EndChar

StartChar: C
Encoding: 67 67 38
Width: 1348
VWidth: 0
Flags: W
HStem: -20 120<676.944 1135.76> 1466 120<676.944 1130.49>
VStem: 119 125<546.563 1019.44>
AnchorPoint: "top" 912 1706 basechar 0
AnchorPoint: "bottom" 912 0 basechar 0
LayerCount: 2
Fore
SplineSet
1204 174 m 1
 1250 48 l 1
 1149 1 1032 -20 912 -20 c 3
 466 -20 119 337 119 783 c 3
 119 1229 466 1586 912 1586 c 3
 1033 1586 1155 1561 1256 1515 c 1
 1204 1390 l 1
 1116 1433 1017 1466 912 1466 c 3
 539 1466 244 1156 244 783 c 3
 244 410 539 100 912 100 c 3
 1017 100 1116 129 1204 174 c 1
EndSplineSet
Validated: 1
EndChar

StartChar: colon
Encoding: 58 58 39
Width: 640
VWidth: 0
Flags: W
HStem: 0 192<298.881 461.119> 708 192<298.881 461.119>
VStem: 284 192<14.8805 177.119 722.881 885.119>
LayerCount: 2
Fore
SplineSet
284 804 m 3
 284 858 326 900 380 900 c 3
 434 900 476 858 476 804 c 3
 476 750 434 708 380 708 c 3
 326 708 284 750 284 804 c 3
284 96 m 3
 284 150 326 192 380 192 c 3
 434 192 476 150 476 96 c 3
 476 42 434 0 380 0 c 3
 326 0 284 42 284 96 c 3
EndSplineSet
Validated: 1
EndChar

StartChar: D
Encoding: 68 68 40
Width: 1398
VWidth: 0
Flags: W
HStem: 0 120<286 717.313> 1446 120<286 717.313>
VStem: 161 125<120 1446> 1154 125<548.712 1017.29>
AnchorPoint: "top" 486 1706 basechar 0
AnchorPoint: "bottom" 486 0 basechar 0
AnchorPoint: "centerD" 223 783 basechar 0
LayerCount: 2
Back
SplineSet
194 1392 m 1
 148 1518 l 1
 249 1565 366 1586 486 1586 c 3
 932 1586 1279 1229 1279 783 c 3
 1279 337 932 -20 486 -20 c 3
 365 -20 243 4 142 50 c 1
 194 175 l 1
 282 132 381 100 486 100 c 3
 859 100 1154 410 1154 783 c 3
 1154 1156 859 1466 486 1466 c 3
 381 1466 282 1437 194 1392 c 1
EndSplineSet
Fore
SplineSet
286 120 m 1
 486 120 l 2
 859 120 1154 410 1154 783 c 3
 1154 1156 859 1446 486 1446 c 2
 286 1446 l 1
 286 120 l 1
161 0 m 1
 161 1566 l 1
 486 1566 l 2
 932 1566 1279 1229 1279 783 c 3
 1279 337 932 0 486 0 c 2
 161 0 l 1
EndSplineSet
Validated: 1
EndChar

StartChar: quotesingle
Encoding: 39 39 41
Width: 640
VWidth: 0
Flags: W
HStem: 1000 566<275 365>
VStem: 250 140<1086.76 1566>
LayerCount: 2
Back
SplineSet
224 96 m 3
 224 150 266 192 320 192 c 3
 374 192 416 150 416 96 c 3
 416 42 374 0 320 0 c 3
 266 0 224 42 224 96 c 3
EndSplineSet
Fore
SplineSet
365 1000 m 1
 275 1000 l 1
 275 1000 250 1345 250 1566 c 1
 390 1566 l 1
 390 1345 365 1000 365 1000 c 1
EndSplineSet
Validated: 1
EndChar

StartChar: semicolon
Encoding: 59 59 42
Width: 640
VWidth: 0
Flags: W
HStem: 708 192<298.881 461.119>
VStem: 284 192<722.881 885.119> 310 140<-90.5417 174>
LayerCount: 2
Fore
SplineSet
300 -392 m 1xa0
 210 -392 l 1
 210 -392 310 -47 310 174 c 1
 450 174 l 1
 450 -47 300 -392 300 -392 c 1xa0
284 804 m 3xc0
 284 858 326 900 380 900 c 3
 434 900 476 858 476 804 c 3
 476 750 434 708 380 708 c 3
 326 708 284 750 284 804 c 3xc0
EndSplineSet
Validated: 1
EndChar

StartChar: J
Encoding: 74 74 43
Width: 447
VWidth: 0
Flags: W
HStem: -591 125<-443 -111.08> 1546 20G<161 286>
VStem: 161 125<-198.843 1566>
AnchorPoint: "top" 223 1706 basechar 0
AnchorPoint: "bottom" -81 -591 basechar 0
LayerCount: 2
Back
SplineSet
286 0 m 2
 286 -315 60 -591 -305 -591 c 2
 -443 -591 l 1
 -443 -466 l 1
 -305 -466 l 2
 -44 -466 161 -265 161 0 c 2
 161 1566 l 1
 286 1566 l 1
 286 0 l 2
EndSplineSet
Fore
SplineSet
286 100 m 2
 286 75 286 -60 276 -114 c 0
 227 -379 15 -591 -305 -591 c 2
 -443 -591 l 1
 -443 -466 l 1
 -305 -466 l 2
 -78 -466 106 -314 151 -100 c 0
 161 -52 161 75 161 100 c 2
 161 1566 l 1
 286 1566 l 1
 286 100 l 2
EndSplineSet
Validated: 1
EndChar

StartChar: quoteleft
Encoding: 8216 8216 44
Width: 640
VWidth: 0
Flags: W
HStem: 1000 566
VStem: 250 140<1000 1264.54>
LayerCount: 2
Back
SplineSet
240 1000 m 5
 150 1000 l 5
 150 1000 250 1345 250 1566 c 5
 390 1566 l 5
 390 1345 240 1000 240 1000 c 5
EndSplineSet
Fore
SplineSet
400 1566 m 1
 490 1566 l 1
 490 1566 390 1221 390 1000 c 1
 250 1000 l 1
 250 1221 400 1566 400 1566 c 1
EndSplineSet
Validated: 1
EndChar

StartChar: quoteright
Encoding: 8217 8217 45
Width: 640
VWidth: 0
Flags: W
HStem: 1000 566
VStem: 250 140<1301.46 1566>
LayerCount: 2
Back
SplineSet
240 -392 m 1
 150 -392 l 1
 150 -392 250 -47 250 174 c 1
 390 174 l 1
 390 -47 240 -392 240 -392 c 1
EndSplineSet
Fore
SplineSet
240 1000 m 1
 150 1000 l 1
 150 1000 250 1345 250 1566 c 1
 390 1566 l 1
 390 1345 240 1000 240 1000 c 1
EndSplineSet
Validated: 1
EndChar

StartChar: quotedbl
Encoding: 34 34 46
Width: 640
VWidth: 0
Flags: W
HStem: 1000 566<140 230 410 500>
VStem: 115 140<1086.76 1566> 385 140<1086.76 1566>
LayerCount: 2
Fore
SplineSet
500 1000 m 1
 410 1000 l 1
 410 1000 385 1345 385 1566 c 1
 525 1566 l 1
 525 1345 500 1000 500 1000 c 1
230 1000 m 1
 140 1000 l 1
 140 1000 115 1345 115 1566 c 1
 255 1566 l 1
 255 1345 230 1000 230 1000 c 1
EndSplineSet
Validated: 1
EndChar

StartChar: quotedblright
Encoding: 8221 8221 47
Width: 640
VWidth: 0
Flags: W
HStem: 1000 566
VStem: 115 140<1301.46 1566> 385 140<1301.46 1566>
LayerCount: 2
Fore
SplineSet
375 1000 m 1
 285 1000 l 1
 285 1000 385 1345 385 1566 c 1
 525 1566 l 1
 525 1345 375 1000 375 1000 c 1
105 1000 m 1
 15 1000 l 1
 15 1000 115 1345 115 1566 c 1
 255 1566 l 1
 255 1345 105 1000 105 1000 c 1
EndSplineSet
Validated: 1
EndChar

StartChar: quotedblleft
Encoding: 8220 8220 48
Width: 640
VWidth: 0
Flags: W
HStem: 1000 566
VStem: 115 140<1000 1264.54> 385 140<1000 1264.54>
LayerCount: 2
Fore
SplineSet
535 1566 m 1
 625 1566 l 1
 625 1566 525 1221 525 1000 c 1
 385 1000 l 1
 385 1221 535 1566 535 1566 c 1
265 1566 m 1
 355 1566 l 1
 355 1566 255 1221 255 1000 c 1
 115 1000 l 1
 115 1221 265 1566 265 1566 c 1
EndSplineSet
Validated: 1
EndChar

StartChar: quotesinglbase
Encoding: 8218 8218 49
Width: 640
VWidth: 0
Flags: W
HStem: -392 566
VStem: 250 140<-90.5417 174>
LayerCount: 2
Fore
SplineSet
240 -392 m 1
 150 -392 l 1
 150 -392 250 -47 250 174 c 1
 390 174 l 1
 390 -47 240 -392 240 -392 c 1
EndSplineSet
Validated: 1
EndChar

StartChar: quotedblbase
Encoding: 8222 8222 50
Width: 640
VWidth: 0
Flags: W
HStem: -392 566
VStem: 115 140<-90.5417 174> 385 140<-90.5417 174>
LayerCount: 2
Fore
SplineSet
375 -392 m 1
 285 -392 l 1
 285 -392 385 -47 385 174 c 1
 525 174 l 1
 525 -47 375 -392 375 -392 c 1
105 -392 m 1
 15 -392 l 1
 15 -392 115 -47 115 174 c 1
 255 174 l 1
 255 -47 105 -392 105 -392 c 1
EndSplineSet
Validated: 1
EndChar

StartChar: onedotenleader
Encoding: 8228 8228 51
Width: 640
VWidth: 0
Flags: W
HStem: 0 192<298.881 461.119>
VStem: 284 192<14.8805 177.119>
LayerCount: 2
Fore
SplineSet
284 96 m 3
 284 150 326 192 380 192 c 3
 434 192 476 150 476 96 c 3
 476 42 434 0 380 0 c 3
 326 0 284 42 284 96 c 3
EndSplineSet
Validated: 1
EndChar

StartChar: twodotenleader
Encoding: 8229 8229 52
Width: 1120
VWidth: 0
Flags: W
HStem: 0 192<298.881 461.119 778.881 941.119>
VStem: 284 192<14.8805 177.119> 764 192<14.8805 177.119>
LayerCount: 2
Fore
SplineSet
764 96 m 3
 764 150 806 192 860 192 c 3
 914 192 956 150 956 96 c 3
 956 42 914 0 860 0 c 3
 806 0 764 42 764 96 c 3
284 96 m 3
 284 150 326 192 380 192 c 3
 434 192 476 150 476 96 c 3
 476 42 434 0 380 0 c 3
 326 0 284 42 284 96 c 3
EndSplineSet
Validated: 1
EndChar

StartChar: ellipsis
Encoding: 8230 8230 53
Width: 1600
VWidth: 0
Flags: W
HStem: 0 192<298.881 461.119 778.881 941.119 1258.88 1421.12>
VStem: 284 192<14.8805 177.119> 764 192<14.8805 177.119> 1244 192<14.8805 177.119>
CounterMasks: 1 70
LayerCount: 2
Fore
SplineSet
1244 96 m 3
 1244 150 1286 192 1340 192 c 3
 1394 192 1436 150 1436 96 c 3
 1436 42 1394 0 1340 0 c 3
 1286 0 1244 42 1244 96 c 3
764 96 m 3
 764 150 806 192 860 192 c 3
 914 192 956 150 956 96 c 3
 956 42 914 0 860 0 c 3
 806 0 764 42 764 96 c 3
284 96 m 3
 284 150 326 192 380 192 c 3
 434 192 476 150 476 96 c 3
 476 42 434 0 380 0 c 3
 326 0 284 42 284 96 c 3
EndSplineSet
Validated: 1
EndChar

StartChar: endash
Encoding: 8211 8211 54
Width: 960
VWidth: 0
Flags: W
HStem: 500 120<120 840>
LayerCount: 2
Fore
SplineSet
120 620 m 1
 840 620 l 1
 840 500 l 1
 120 500 l 1
 120 620 l 1
EndSplineSet
Validated: 1
EndChar

StartChar: minus
Encoding: 8722 8722 55
Width: 960
VWidth: 0
Flags: W
HStem: 600 120<120 840>
LayerCount: 2
Fore
SplineSet
120 720 m 1
 840 720 l 1
 840 600 l 1
 120 600 l 1
 120 720 l 1
EndSplineSet
Validated: 1
EndChar

StartChar: plus
Encoding: 43 43 56
Width: 960
VWidth: 0
Flags: W
HStem: 600 120<120 418 543 840> 1000 20G<418 543>
VStem: 418 125<300 600 720 1020>
LayerCount: 2
Fore
SplineSet
418 720 m 1
 418 1020 l 1
 543 1020 l 1
 543 720 l 1
 840 720 l 1
 840 600 l 1
 543 600 l 1
 543 300 l 1
 418 300 l 1
 418 600 l 1
 120 600 l 1
 120 720 l 1
 418 720 l 1
EndSplineSet
Validated: 1
EndChar

StartChar: underscore
Encoding: 95 95 57
Width: 960
VWidth: 0
Flags: W
HStem: -120 120<120 840>
LayerCount: 2
Fore
SplineSet
120 0 m 1
 840 0 l 1
 840 -120 l 1
 120 -120 l 1
 120 0 l 1
EndSplineSet
Validated: 1
EndChar

StartChar: equal
Encoding: 61 61 58
Width: 960
VWidth: 0
Flags: W
HStem: 450 120<120 840> 750 120<120 840>
LayerCount: 2
Fore
SplineSet
120 870 m 1
 840 870 l 1
 840 750 l 1
 120 750 l 1
 120 870 l 1
120 570 m 1
 840 570 l 1
 840 450 l 1
 120 450 l 1
 120 570 l 1
EndSplineSet
Validated: 1
EndChar

StartChar: emdash
Encoding: 8212 8212 59
Width: 1920
VWidth: 0
Flags: W
HStem: 500 120<120 1800>
LayerCount: 2
Fore
SplineSet
120 620 m 1
 1800 620 l 1
 1800 500 l 1
 120 500 l 1
 120 620 l 1
EndSplineSet
Validated: 1
EndChar

StartChar: one
Encoding: 49 49 60
Width: 1280
VWidth: 0
Flags: W
HStem: 5 120<140 610 735 1140> 1546 20G<579.333 735>
VStem: 610 125<125 1426>
LayerCount: 2
Fore
SplineSet
735 125 m 1
 1140 125 l 1
 1140 5 l 1
 140 5 l 1
 140 125 l 1
 610 125 l 1
 610 1426 l 1
 150 1126 l 1
 150 1266 l 1
 610 1566 l 1
 735 1566 l 1
 735 125 l 1
EndSplineSet
Validated: 1
Substitution2: "'subs' Subscript looup numerals" one.sup
Substitution2: "'sups' Superscript lookup numerals" one.sup
EndChar

StartChar: zero
Encoding: 48 48 61
Width: 1280
VWidth: 0
Flags: W
HStem: -20 120<499.076 779.847> 1466 120<499.076 779.847>
VStem: 140 125<448.179 1117.82> 1015 125<448.179 1117.82>
LayerCount: 2
Back
SplineSet
-153 783 m 3
 -153 1229 194 1586 640 1586 c 3
 1086 1586 1433 1229 1433 783 c 3
 1433 337 1086 -20 640 -20 c 3
 194 -20 -153 337 -153 783 c 3
640 1466 m 3
 267 1466 -28 1156 -28 783 c 3
 -28 410 267 100 640 100 c 3
 1013 100 1308 410 1308 783 c 3
 1308 1156 1013 1466 640 1466 c 3
EndSplineSet
Fore
SplineSet
140 783 m 3
 140 1229 318 1586 639 1586 c 3
 962 1586 1140 1229 1140 783 c 3
 1140 337 962 -20 639 -20 c 3
 318 -20 140 337 140 783 c 3
639 1466 m 3
 404 1466 265 1156 265 783 c 3
 265 410 404 100 639 100 c 3
 876 100 1015 410 1015 783 c 3
 1015 1156 876 1466 639 1466 c 3
EndSplineSet
Validated: 1
EndChar

StartChar: P
Encoding: 80 80 62
Width: 1190
VWidth: 0
Flags: W
HStem: -2 21G<161 286> 700 120<286 756.17> 1446 120<286 756.17>
VStem: 161 125<-2 700 820 1446> 982 125<995.802 1270.2>
AnchorPoint: "top" 529 1706 basechar 0
AnchorPoint: "bottom" 529 0 basechar 0
LayerCount: 2
Back
SplineSet
161 -2 m 1
 161 1561 l 1
 900 1561 l 1
 900 1441 l 1
 286 1441 l 1
 286 880 l 1
 894 880 l 1
 894 760 l 1
 286 760 l 1
 286 -2 l 1
 161 -2 l 1
EndSplineSet
Fore
SplineSet
286 700 m 25
 286 -2 l 1
 161 -2 l 1
 161 1566 l 1
 486 1566 l 2
 932 1566 1107 1333 1107 1133 c 3
 1107 933 932 700 486 700 c 2
 286 700 l 25
486 820 m 2
 859 820 982 993 982 1133 c 3
 982 1273 859 1446 486 1446 c 2
 286 1446 l 1
 286 820 l 1
 486 820 l 2
EndSplineSet
Validated: 1
EndChar

StartChar: U
Encoding: 85 85 63
Width: 1462
VWidth: 0
Flags: W
HStem: -20 125<535.397 926.603> 1546 20G<140 265 1197 1322>
VStem: 140 125<372.157 1566> 1197 125<372.157 1566>
AnchorPoint: "bottom" 731 0 basechar 0
AnchorPoint: "top" 731 1706 basechar 0
LayerCount: 2
Back
SplineSet
1322 671 m 2
 1322 646 1322 511 1312 457 c 0
 1263 192 1051 -20 731 -20 c 2
 593 -20 l 1
 593 105 l 1
 731 105 l 2
 958 105 1142 257 1187 471 c 0
 1197 519 1197 646 1197 671 c 2
 1197 2137 l 1
 1322 2137 l 1
 1322 671 l 2
EndSplineSet
Fore
SplineSet
731 105 m 3
 958 105 1142 257 1187 471 c 0
 1197 519 1197 646 1197 671 c 2
 1197 1566 l 1
 1322 1566 l 1
 1322 671 l 2
 1322 646 1322 511 1312 457 c 0
 1263 192 1051 -20 731 -20 c 3
 411 -20 199 192 150 457 c 0
 140 511 140 646 140 671 c 2
 140 1566 l 1
 265 1566 l 1
 265 671 l 2
 265 646 265 519 275 471 c 0
 320 257 504 105 731 105 c 3
EndSplineSet
Validated: 1
EndChar

StartChar: V
Encoding: 86 86 64
Width: 1462
VWidth: 0
Flags: W
HStem: 1546 20G<15 158.12 1303.88 1447>
AnchorPoint: "top" 731 1706 basechar 0
AnchorPoint: "bottom" 731 0 basechar 0
LayerCount: 2
Fore
SplineSet
15 1566 m 1
 150 1566 l 1
 731 135 l 1
 1312 1566 l 1
 1447 1566 l 1
 799 0 l 1
 658 0 l 1
 15 1566 l 1
EndSplineSet
Validated: 1
EndChar

StartChar: A
Encoding: 65 65 65
Width: 1462
VWidth: 0
Flags: W
HStem: -2 21G<14 157.11 1304.89 1448> 760 120<507 955> 1546 20G<654.722 812.214>
AnchorPoint: "center" 731 783 basechar 0
AnchorPoint: "bottom" 731 0 basechar 0
AnchorPoint: "top" 731 1706 basechar 0
LayerCount: 2
Fore
SplineSet
955 880 m 1
 731 1431 l 1
 507 880 l 1
 955 880 l 1
458 760 m 1
 149 -2 l 1
 14 -2 l 1
 663 1566 l 1
 804 1566 l 1
 1448 -2 l 1
 1313 -2 l 1
 1004 760 l 1
 458 760 l 1
EndSplineSet
Validated: 1
EndChar

StartChar: R
Encoding: 82 82 66
Width: 1226
VWidth: 0
Flags: W
HStem: -2 21G<161 286 1019.45 1176> 700 120<286 619.029> 1446 120<286 756.17>
VStem: 161 125<-2 700 820 1446> 982 125<992.464 1270.2>
AnchorPoint: "top" 529 1706 basechar 0
AnchorPoint: "bottom" 529 0 basechar 0
LayerCount: 2
Back
SplineSet
286 700 m 25
 286 -2 l 1
 161 -2 l 1
 161 1566 l 1
 486 1566 l 2
 932 1566 1107 1333 1107 1133 c 3
 1107 933 932 700 486 700 c 2
 286 700 l 25
486 820 m 2
 859 820 982 992.942382812 982 1133 c 3
 982 1273 858.981445312 1446 486 1446 c 2
 286 1446 l 1
 286 820 l 1
 486 820 l 2
EndSplineSet
Fore
SplineSet
486 820 m 2
 859 820 982 993 982 1133 c 3
 982 1273 859 1446 486 1446 c 2
 286 1446 l 1
 286 820 l 1
 486 820 l 2
286 700 m 1
 286 -2 l 1
 161 -2 l 1
 161 1566 l 1
 486 1566 l 2
 932 1566 1107 1333 1107 1133 c 3
 1107 978 1002 804 748 733 c 1
 1176 -2 l 1
 1031 -2 l 1
 621 708 l 1
 579 703 534 700 486 700 c 2
 286 700 l 1
EndSplineSet
Validated: 513
Substitution2: "'c2sc' Capitals to Small Capitals" r.sc
EndChar

StartChar: exclam
Encoding: 33 33 67
Width: 640
VWidth: 0
Flags: W
HStem: 0 192<298.881 461.119> 1546 20G<310 450>
VStem: 284 192<14.8805 177.119> 310 140<1086.35 1566>
LayerCount: 2
Back
SplineSet
425 1000 m 1
 335 1000 l 1
 335 1000 310 1345 310 1566 c 1
 450 1566 l 1
 450 1345 425 1000 425 1000 c 1
EndSplineSet
Fore
SplineSet
425 360 m 1xd0
 335 360 l 1
 335 360 310 660 310 1566 c 1
 450 1566 l 1
 450 660 425 360 425 360 c 1xd0
284 96 m 3xe0
 284 150 326 192 380 192 c 3
 434 192 476 150 476 96 c 3
 476 42 434 0 380 0 c 3
 326 0 284 42 284 96 c 3xe0
EndSplineSet
Validated: 1
EndChar

StartChar: bar
Encoding: 124 124 68
Width: 640
VWidth: 0
Flags: W
HStem: 1618 20G<260 380>
VStem: 260 120<-72 1638>
LayerCount: 2
Fore
SplineSet
260 -72 m 1
 260 1638 l 1
 380 1638 l 1
 380 -72 l 1
 260 -72 l 1
EndSplineSet
Validated: 1
EndChar

StartChar: Q
Encoding: 81 81 69
Width: 1824
VWidth: 0
Flags: W
HStem: -20 120<676.944 1150.27> 1466 120<676.944 1147.06>
VStem: 119 125<546.563 1019.44> 1580 125<539.259 1019.44>
AnchorPoint: "top" 912 1706 basechar 0
AnchorPoint: "bottom" 912 0 basechar 0
LayerCount: 2
Fore
SplineSet
912 1466 m 3
 539 1466 244 1156 244 783 c 3
 244 410 539 100 912 100 c 3
 1002 100 1088 118 1166 151 c 1
 965 500 l 1
 1110 500 l 1
 1277 211 l 1
 1460 334 1580 545 1580 783 c 3
 1580 1156 1285 1466 912 1466 c 3
119 783 m 3
 119 1229 466 1586 912 1586 c 3
 1358 1586 1705 1229 1705 783 c 3
 1705 496 1561 245 1339 103 c 1
 1520 -210 l 1
 1375 -210 l 1
 1228 44 l 1
 1132 2 1025 -20 912 -20 c 3
 466 -20 119 337 119 783 c 3
EndSplineSet
Validated: 1
EndChar

StartChar: W
Encoding: 87 87 70
Width: 1969
VWidth: 0
Flags: W
HStem: 1546 20G<28 165.861 978.139 989.861 1802.14 1941>
AnchorPoint: "top" 984 1706 basechar 0
AnchorPoint: "bottom" 984 0 basechar 0
LayerCount: 2
Fore
SplineSet
28 1566 m 1
 160 1566 l 1
 572 160 l 1
 984 1566 l 1
 1396 160 l 1
 1808 1566 l 1
 1941 1566 l 1
 1464 0 l 1
 1323 0 l 1
 984 1127 l 1
 640 0 l 1
 499 0 l 1
 28 1566 l 1
EndSplineSet
Validated: 1
EndChar

StartChar: S
Encoding: 83 83 71
Width: 1212
VWidth: 0
Flags: W
HStem: -20 120<284.559 779.773> 1466 120<395.24 841.158>
VStem: 106 120<1076.01 1335> 981 125<249.157 541.532>
AnchorPoint: "center" 579 783 basechar 0
AnchorPoint: "top" 579 1706 basechar 0
AnchorPoint: "bottom" 579 0 basechar 0
LayerCount: 2
Back
SplineSet
247 1392 m 1
 201 1518 l 1
 302 1565 419 1586 539 1586 c 3
 985 1586 1332 1229 1332 783 c 3
 1332 337 985 -20 539 -20 c 3
 418 -20 296 4 195 50 c 1
 247 175 l 1
 335 132 434 100 539 100 c 3
 912 100 1207 410 1207 783 c 3
 1207 1156 912 1466 539 1466 c 3
 434 1466 335 1437 247 1392 c 1
912 174 m 1
 958 48 l 1
 857 1 740 -20 620 -20 c 3
 174 -20 -173 337 -173 783 c 3
 -173 1229 174 1586 620 1586 c 3
 741 1586 863 1562 964 1516 c 1
 912 1391 l 1
 824 1434 725 1466 620 1466 c 3
 247 1466 -48 1156 -48 783 c 3
 -48 410 247 100 620 100 c 3
 725 100 824 129 912 174 c 1
EndSplineSet
Fore
SplineSet
1106 380 m 3
 1106 66 781 -20 539 -20 c 3
 418 -20 256 4 155 50 c 1
 207 175 l 1
 295 132 434 100 539 100 c 3
 712 100 981 174 981 380 c 3
 981 530 898 653 620 743 c 0
 217 874 106 995 106 1232 c 3
 106 1490 407 1586 620 1586 c 3
 741 1586 863 1562 964 1516 c 1
 912 1391 l 1
 824 1434 725 1466 620 1466 c 3
 427 1466 226 1373 226 1232 c 3
 226 1073 323 963 620 868 c 0
 1005 745 1106 599 1106 380 c 3
EndSplineSet
Validated: 1
Substitution2: "'c2sc' Capitals to Small Capitals" s.sc
EndChar

StartChar: B
Encoding: 66 66 72
Width: 1226
VWidth: 0
Flags: W
HStem: -2 122<286 756.17> 760 120<286 708.702> 1446 120<286 713.219>
VStem: 161 125<120 760 880 1446> 881 125<1025.96 1301.99> 982 125<292.429 573.548>
AnchorPoint: "top" 486 1706 basechar 0
AnchorPoint: "bottom" 486 0 basechar 0
LayerCount: 2
Back
SplineSet
1006 1163 m 3xf8
 1006 1035 935 907 793 830 c 1
 1014 747 1107 574 1107 429 c 1027xf4
EndSplineSet
Fore
SplineSet
486 760 m 2xf4
 286 760 l 1
 286 120 l 1
 486 120 l 2
 859 120 982 289 982 429 c 3
 982 569 859 760 486 760 c 2xf4
763 830 m 1
 1011 761 1107 574 1107 429 c 3xf4
 1107 229 932 -2 486 -2 c 2
 161 -2 l 1
 161 1566 l 1
 486 1566 l 2
 832 1566 1006 1363 1006 1163 c 3xf8
 1006 1035 933 887 763 830 c 1
486 880 m 2
 759 880 881 1023 881 1163 c 3xf8
 881 1303 769 1446 486 1446 c 2
 286 1446 l 1
 286 880 l 1
 486 880 l 2
EndSplineSet
Validated: 1
EndChar

StartChar: G
Encoding: 71 71 73
Width: 1704
VWidth: 0
Flags: W
HStem: -20 120<681.152 1113.58> 663 120<912 1470> 1466 120<676.944 1133.16>
VStem: 119 125<546.563 1019.44> 1470 131<487.333 663>
AnchorPoint: "top" 912 1706 basechar 0
AnchorPoint: "bottom" 912 0 basechar 0
LayerCount: 2
Back
SplineSet
244 783 m 3
 244 410 539 100 912 100 c 3
 1244 100 1515 346 1570 663 c 1025
1705 783 m 1
 1705 337 1358 -20 912 -20 c 3
 466 -20 119 337 119 783 c 1027
EndSplineSet
Fore
SplineSet
1601 783 m 1
 1601 241 1262 -20 902 -20 c 3
 466 -20 119 337 119 783 c 3
 119 1229 466 1586 912 1586 c 3
 1033 1586 1155 1562 1256 1516 c 1
 1204 1391 l 1
 1116 1434 1017 1466 912 1466 c 3
 539 1466 244 1156 244 783 c 3
 244 410 539 100 902 100 c 3
 1164 100 1454 300 1470 663 c 1
 912 663 l 1
 912 783 l 1
 1601 783 l 1
EndSplineSet
Validated: 1
EndChar

StartChar: Y
Encoding: 89 89 74
Width: 1422
VWidth: 0
Flags: W
HStem: -2 21G<649 774> 1546 20G<5 170.487 1251.51 1417>
VStem: 649 125<-2 737>
AnchorPoint: "bottom" 711 0 basechar 0
AnchorPoint: "top" 711 1706 basechar 0
LayerCount: 2
Fore
SplineSet
5 1566 m 1
 155 1566 l 1
 711 848 l 1
 1267 1566 l 1
 1417 1566 l 1
 774 737 l 1
 774 -2 l 1
 649 -2 l 1
 649 737 l 1
 5 1566 l 1
EndSplineSet
Validated: 1
EndChar

StartChar: three
Encoding: 51 51 75
Width: 1280
VWidth: 0
Flags: W
HStem: -20 120<265.559 789.577> 760 120<520 742.702> 1466 120<327.821 735.963>
VStem: 915 125<1025.96 1306.11> 1016 125<283.953 573.548>
LayerCount: 2
Back
SplineSet
1087 380 m 3
 1087 66 762 -20 520 -20 c 3
 399 -20 237 4 136 50 c 1
 188 175 l 1
 276 132 415 100 520 100 c 3
 693 100 962 174 962 380 c 3
 962 530 879 653 601 743 c 0
 198 874 87 995 87 1232 c 3
 87 1490 388 1586 601 1586 c 3
 722 1586 844 1562 945 1516 c 1
 893 1391 l 1
 805 1434 706 1466 601 1466 c 3
 408 1466 207 1373 207 1232 c 3
 207 1073 304 963 601 868 c 0
 986 745 1087 599 1087 380 c 3
EndSplineSet
Fore
SplineSet
797 830 m 1xf0
 1045 761 1141 574 1141 429 c 3
 1141 229 966 -20 520 -20 c 3
 399 -20 237 4 136 50 c 1
 188 175 l 1
 276 132 415 100 520 100 c 3
 892 100 1016 289 1016 429 c 3xe8
 1016 569 893 760 520 760 c 1
 520 880 l 1
 793 880 915 1023 915 1163 c 3
 915 1303 803 1466 520 1466 c 3
 452 1466 308 1421 260 1392 c 1
NamedP: "868, 174"
 214 1518 l 1
 392 1586 455 1586 520 1586 c 3
 866 1586 1040 1363 1040 1163 c 3
 1040 1035 967 887 797 830 c 1xf0
EndSplineSet
Validated: 1
Substitution2: "'sups' Superscript lookup numerals" three.sup
EndChar

StartChar: slash
Encoding: 47 47 76
Width: 960
VWidth: 0
Flags: W
HStem: 1566 20G<731.843 875>
LayerCount: 2
Back
SplineSet
-556 1566 m 5
 -421 1566 l 5
 160 135 l 5
 741 1566 l 5
 876 1566 l 5
 228 0 l 5
 87 0 l 5
 -556 1566 l 5
EndSplineSet
Fore
SplineSet
85 -20 m 1
 740 1586 l 1
 875 1586 l 1
 220 -20 l 1
 85 -20 l 1
EndSplineSet
Validated: 1
EndChar

StartChar: backslash
Encoding: 92 92 77
Width: 960
VWidth: 0
Flags: W
LayerCount: 2
Fore
SplineSet
85 1588 m 1
 220 1588 l 1
 875 -18 l 1
 740 -18 l 1
 85 1588 l 1
EndSplineSet
Validated: 1
EndChar

StartChar: copyright
Encoding: 169 169 78
Width: 1824
VWidth: 0
Flags: W
HStem: -20 120<676.944 1147.06> 263 120<745.334 1104.76> 1183 120<745.334 1099.74> 1466 120<676.944 1147.06>
VStem: 119 125<546.563 1019.44> 423 125<600.257 965.743> 1580 125<546.563 1019.44>
AnchorPoint: "center" 912 783.043 basechar 0
LayerCount: 2
Fore
SplineSet
1172 1107 m 1
 1084 1150 985 1183 912 1183 c 3
 662 1183 548 943 548 783 c 3
 548 623 662 383 912 383 c 3
 985 383 1084 412 1172 457 c 1
NamedP: "868, 174"
 1218 331 l 1
 1117 284 1000 263 912 263 c 3
 561 263 423 563 423 783 c 3
 423 1003 561 1303 912 1303 c 3
 1001 1303 1123 1278 1224 1232 c 1
 1172 1107 l 1
119 783 m 3
 119 1229 466 1586 912 1586 c 3
 1358 1586 1705 1229 1705 783 c 3
 1705 337 1358 -20 912 -20 c 3
 466 -20 119 337 119 783 c 3
912 1466 m 3
 539 1466 244 1156 244 783 c 3
 244 410 539 100 912 100 c 3
 1285 100 1580 410 1580 783 c 3
 1580 1156 1285 1466 912 1466 c 3
EndSplineSet
Validated: 1
EndChar

StartChar: two
Encoding: 50 50 79
Width: 1280
VWidth: 0
Flags: W
HStem: 5 120<285 1140> 1466 120<327.821 735.963>
VStem: 915 125<961.078 1306.11>
LayerCount: 2
Back
SplineSet
150 1561 m 1
 1140 1561 l 1
 1140 1443 l 1
 285 125 l 1
 1140 125 l 1
 1140 5 l 1
 140 5 l 1
 140 123 l 1
 995 1441 l 1
 150 1441 l 1
 150 1561 l 1
EndSplineSet
Fore
SplineSet
285 125 m 1
 1140 125 l 1
 1140 5 l 1
 140 5 l 1
 140 123 l 1
 528 721 915 756 915 1163 c 3
 915 1303 803 1466 520 1466 c 3
 452 1466 308 1421 260 1392 c 1
NamedP: "868, 174"
 214 1518 l 1
 392 1586 455 1586 520 1586 c 3
 866 1586 1040 1363 1040 1163 c 3
 1040 686 634 663 285 125 c 1
EndSplineSet
Validated: 1
Substitution2: "'sups' Superscript lookup numerals" two.sup
EndChar

StartChar: Z
Encoding: 90 90 80
Width: 1212
VWidth: 0
Flags: W
HStem: 5 120<251 1106> 1441 120<116 961>
AnchorPoint: "top" 602 1706 basechar 0
AnchorPoint: "bottom" 606 0 basechar 0
LayerCount: 2
Fore
SplineSet
116 1561 m 1
 1106 1561 l 1
 1106 1443 l 1
 251 125 l 1
 1106 125 l 1
 1106 5 l 1
 106 5 l 1
 106 123 l 1
 961 1441 l 1
 116 1441 l 1
 116 1561 l 1
EndSplineSet
Validated: 1
EndChar

StartChar: question
Encoding: 63 63 81
Width: 960
VWidth: 0
Flags: W
HStem: 4 192<298.881 461.119> 1466 120<187.821 595.963>
VStem: 284 192<18.8805 181.119> 335 90<364 568.785> 775 125<991.765 1306.11>
LayerCount: 2
Back
SplineSet
145 125 m 5
 1000 125 l 5
 1000 5 l 5
 0 5 l 5
 0 123 l 5
 388 721 775 756 775 1163 c 7
 775 1303 663 1466 380 1466 c 7
 312 1466 168 1421 120 1392 c 5
NamedP: "868, 174"
 74 1518 l 5
 252 1586 315 1586 380 1586 c 7
 726 1586 900 1363 900 1163 c 7
 900 686 494 663 145 125 c 5
EndSplineSet
Fore
SplineSet
284 100 m 3xe8
 284 154 326 196 380 196 c 3
 434 196 476 154 476 100 c 3
 476 46 434 4 380 4 c 3
 326 4 284 46 284 100 c 3xe8
335 364 m 1xd8
 335 950 775 756 775 1163 c 3
 775 1303 663 1466 380 1466 c 3
 312 1466 168 1421 120 1392 c 1
NamedP: "868, 174"
 74 1518 l 1
 252 1586 315 1586 380 1586 c 3
 726 1586 900 1363 900 1163 c 3
 900 686 425 830 425 364 c 1
 335 364 l 1xd8
EndSplineSet
Validated: 1
EndChar

StartChar: bracketleft
Encoding: 91 91 82
Width: 640
VWidth: 0
Flags: W
HStem: -72 120<271 494> 1518 120<271 494>
VStem: 146 348<-72 48 1518 1638> 146 125<48 1518>
LayerCount: 2
Fore
SplineSet
146 -72 m 5xe0
 146 1638 l 5
 494 1638 l 5
 494 1518 l 5xe0
 271 1518 l 5
 271 48 l 5xd0
 494 48 l 5
 494 -72 l 5
 146 -72 l 5xe0
EndSplineSet
Validated: 1
EndChar

StartChar: bracketright
Encoding: 93 93 83
Width: 640
VWidth: 0
Flags: W
HStem: -72 120<146 369> 1518 120<146 369>
VStem: 146 348<-72 48 1518 1638> 369 125<48 1518>
LayerCount: 2
Fore
SplineSet
494 -72 m 1xe0
 146 -72 l 1
 146 48 l 1xe0
 369 48 l 1
 369 1518 l 1xd0
 146 1518 l 1
 146 1638 l 1
 494 1638 l 1
 494 -72 l 1xe0
EndSplineSet
Validated: 1
EndChar

StartChar: X
Encoding: 88 88 84
Width: 1422
VWidth: 0
Flags: W
HStem: -2 21G<49 213.72 1208.34 1373> 1546 20G<50 214.776 1207.28 1372>
AnchorPoint: "bottom" 712 0 basechar 0
AnchorPoint: "top" 712 1706 basechar 0
LayerCount: 2
Fore
SplineSet
50 1566 m 1
 200 1566 l 1
 712 873 l 1
 1222 1566 l 1
 1372 1566 l 1
 793 783 l 1
 1373 -2 l 1
 1223 -2 l 1
 712 695 l 1
 199 -2 l 1
 49 -2 l 1
 629 783 l 1
 50 1566 l 1
EndSplineSet
Validated: 1
EndChar

StartChar: K
Encoding: 75 75 85
Width: 1262
VWidth: 0
Flags: W
HStem: -2 21G<161 286 1050.05 1240> 1546 20G<161 286 1044.05 1234>
VStem: 161 125<-2 784 786 1566>
AnchorPoint: "top" 697 1706 basechar 0
AnchorPoint: "bottom" 697 0 basechar 0
LayerCount: 2
Fore
SplineSet
161 -2 m 1
 161 1566 l 1
 286 1566 l 1
 286 786 l 1
 1064 1566 l 1
 1234 1566 l 1
 456 785 l 1
 1240 -2 l 1
 1070 -2 l 1
 286 784 l 1
 286 -2 l 1
 161 -2 l 1
EndSplineSet
Validated: 1
EndChar

StartChar: four
Encoding: 52 52 86
Width: 1280
VWidth: 0
Flags: W
HStem: -2 21G<814 939.049> 409 120<282 815 940 1160> 1546 20G<802.833 941>
VStem: 815 125<-2 409 529 1349>
LayerCount: 2
Back
SplineSet
142 1965 m 5
 1132 1965 l 5
 1132 1847 l 5
 277 529 l 5
 1132 529 l 5
 1132 409 l 5
 132 409 l 5
 132 527 l 5
 987 1845 l 5
 142 1845 l 5
 142 1965 l 5
EndSplineSet
Fore
SplineSet
1160 529 m 1
 1160 409 l 1
 940 409 l 1
 939 -2 l 1
 814 -2 l 1
 815 409 l 1
 132 409 l 1
 132 527 l 1
 816 1566 l 1
 941 1566 l 1
 940 529 l 1
 1160 529 l 1
282 529 m 1
 815 529 l 1
 816 1349 l 1
 282 529 l 1
EndSplineSet
Validated: 1
Substitution2: "'subs' Subscript looup numerals" four.sub
Substitution2: "'sups' Superscript lookup numerals" four.sup
EndChar

StartChar: dollar
Encoding: 36 36 87
Width: 1280
VWidth: 0
Flags: W
HStem: 0 120<320.327 580 700 820.443> 1442 121<411.829 580 700 883.767> 1618 20G<580 700>
VStem: 140 120<1073.24 1328.34> 580 120<-72 0 131 727 893 1442 1565 1638> 1015 125<266.778 544.388>
LayerCount: 2
Back
SplineSet
580 -72 m 1
 580 1638 l 1
 700 1638 l 1
 700 -72 l 1
 580 -72 l 1
EndSplineSet
Fore
SplineSet
700 7 m 1
 700 -72 l 1
 580 -72 l 1
 580 0 l 1
 573 0 l 2
 452 0 290 24 189 70 c 1
 241 195 l 1
 329 152 468 120 573 120 c 2
 580 120 l 1
 580 768 l 1
 237 889 140 1000 140 1222 c 3
 140 1451 378 1545 580 1563 c 1
 580 1638 l 1
 700 1638 l 1
 700 1565 l 1
 806 1560 910 1536 998 1496 c 1
 946 1371 l 1
 871 1408 788 1436 700 1444 c 1
 700 853 l 1
 1047 734 1140 600 1140 390 c 3
 1140 129 915 32 700 7 c 1
700 131 m 1
 853 156 1015 230 1015 390 c 3
 1015 531 941 639 700 727 c 1
 700 131 l 1
580 1442 m 1
 413 1424 260 1345 260 1222 c 3
 260 1077 341 981 580 893 c 1
 580 1442 l 1
EndSplineSet
Validated: 1
EndChar

StartChar: numbersign
Encoding: 35 35 88
Width: 1280
VWidth: 0
Flags: W
HStem: -20 21G<0 143.147 490 633.147> 498 120<70 211 395 701 885 1110> 946 120<170 394 578 884 1068 1210> 1566 20G<646.846 790 1136.85 1280>
LayerCount: 2
Fore
SplineSet
701 498 m 1
 346 498 l 1
 135 -20 l 1
 0 -20 l 1
 211 498 l 1
 70 498 l 1
 70 618 l 1
 260 618 l 1
 394 946 l 1
 170 946 l 1
 170 1066 l 1
 443 1066 l 1
 655 1586 l 1
 790 1586 l 1
 578 1066 l 1
 933 1066 l 1
 1145 1586 l 1
 1280 1586 l 1
 1068 1066 l 1
 1210 1066 l 1
 1210 946 l 1
 1019 946 l 1
 885 618 l 1
 1110 618 l 1
 1110 498 l 1
 836 498 l 1
 625 -20 l 1
 490 -20 l 1
 701 498 l 1
750 618 m 1
 884 946 l 1
 529 946 l 1
 395 618 l 1
 750 618 l 1
EndSplineSet
Validated: 1
EndChar

StartChar: five
Encoding: 53 53 89
Width: 1280
VWidth: 0
Flags: W
HStem: -20 120<265.559 776.286> 890 120<328.353 776.378> 1441 120<364 1120>
VStem: 1016 125<308.772 667.084>
LayerCount: 2
Back
SplineSet
797 830 m 5xf0
 1045 761 1141 574 1141 429 c 7
 1141 229 966 -20 520 -20 c 7
 399 -20 237 4 136 50 c 5
 188 175 l 5
 276 132 415 100 520 100 c 7
 892 100 1016 289 1016 429 c 7xe8
 1016 569 893 760 520 760 c 5
 520 880 l 5
 793 880 915 1023 915 1163 c 7
 915 1303 803 1466 520 1466 c 7
 452 1466 308 1421 260 1392 c 5
NamedP: "868, 174"
 214 1518 l 5
 392 1586 455 1586 520 1586 c 7
 866 1586 1040 1363 1040 1163 c 7
 1040 1035 967 887 797 830 c 5xf0
EndSplineSet
Fore
SplineSet
325 983 m 1
 360 1000 439 1010 570 1010 c 3
 915 1010 1141 761 1141 495 c 3
 1141 229 966 -20 520 -20 c 3
 399 -20 237 4 136 50 c 1
 188 175 l 1
 276 132 415 100 520 100 c 3
 892 100 1016 289 1016 495 c 3
 1016 701 842 890 570 890 c 3
 415 890 276 858 189 815 c 1
 235 1561 l 1
 1120 1561 l 1
 1120 1441 l 1
 364 1441 l 1
 325 983 l 1
EndSplineSet
Validated: 1
EndChar

StartChar: six
Encoding: 54 54 90
Width: 1280
VWidth: 0
Flags: W
HStem: -20 120<463.553 816.447> 900 120<464.417 816.447> 1546 20G<580.323 730>
VStem: 140 125<312.272 689.679> 1015 125<312.272 687.728>
LayerCount: 2
Back
SplineSet
640 900 m 3
 404 900 265 700.039996001 265 500 c 1027
140 500 m 3
 140 775.001818176 319 1020 640 1020 c 1027
EndSplineSet
Fore
SplineSet
200 760 m 2
 590 1566 l 1
 730 1566 l 1
 443 976 l 1
 507 1009 571 1020 640 1020 c 3
 961 1020 1140 775 1140 500 c 3
 1140 225 961 -20 640 -20 c 3
 319 -20 140 225 140 500 c 3
 140 598 155 666 200 760 c 2
265 500 m 3
 265 300 404 100 640 100 c 3
 876 100 1015 300 1015 500 c 3
 1015 700 876 900 640 900 c 3
 404 900 265 700 265 500 c 3
EndSplineSet
Validated: 1
EndChar

StartChar: nine
Encoding: 57 57 91
Width: 1280
VWidth: 0
Flags: W
HStem: -2 21G<549 698.678> 546 120<463.553 815.583> 1466 120<463.553 816.447>
VStem: 140 125<878.272 1253.73> 1015 125<876.321 1253.73>
LayerCount: 2
Fore
SplineSet
1080 806 m 2
 689 -2 l 1
 549 -2 l 1
 837 590 l 1
 773 557 709 546 640 546 c 3
 319 546 140 791 140 1066 c 3
 140 1341 319 1586 640 1586 c 3
 961 1586 1140 1341 1140 1066 c 3
 1140 968 1125 900 1080 806 c 2
1015 1066 m 3
 1015 1266 876 1466 640 1466 c 3
 404 1466 265 1266 265 1066 c 3
 265 866 404 666 640 666 c 3
 876 666 1015 866 1015 1066 c 3
EndSplineSet
Validated: 1
EndChar

StartChar: eight
Encoding: 56 56 92
Width: 1280
VWidth: 0
Flags: W
HStem: -20 120<453.337 826.663> 800 120<473.257 806.743> 1466 120<469.564 810.436>
VStem: 140 125<282.763 616.078> 215 125<1046.58 1340.09> 940 125<1046.58 1340.09> 1015 125<282.763 616.078>
LayerCount: 2
Fore
SplineSet
265 450 m 3xf2
 265 275 404 100 640 100 c 3
 876 100 1015 275 1015 450 c 3
 1015 625 876 800 640 800 c 3
 404 800 265 625 265 450 c 3xf2
640 1586 m 3
 886 1586 1065 1418 1065 1193 c 3xec
 1065 1054 991 936 881 867 c 1
 1046 787 1140 626 1140 450 c 3
 1140 200 961 -20 640 -20 c 3
 319 -20 140 200 140 450 c 3xf2
 140 626 234 787 399 867 c 1
 289 936 215 1054 215 1193 c 3xe8
 215 1418 394 1586 640 1586 c 3
640 920 m 3
 826 920 940 1043 940 1193 c 3
 940 1343 826 1466 640 1466 c 3
 454 1466 340 1343 340 1193 c 3
 340 1043 454 920 640 920 c 3
EndSplineSet
Validated: 1
EndChar

StartChar: seven
Encoding: 55 55 93
Width: 1280
VWidth: 0
Flags: W
HStem: -2 21G<420 553.235> 1441 120<140 995>
VStem: 420 125<-2 147.812>
LayerCount: 2
Fore
SplineSet
420 -2 m 17
 420 -2 646 903 995 1441 c 1
 140 1441 l 1
 140 1561 l 1
 1140 1561 l 1
 1140 1443 l 1
 752 845 545 -2 545 -2 c 9
 420 -2 l 17
EndSplineSet
Validated: 1
EndChar

StartChar: at
Encoding: 64 64 94
Width: 1824
VWidth: 0
Flags: W
HStem: -20 120<676.944 1135.76> 220 120<1420.47 1514.09> 263 120<745.334 1082.4> 1183 120<745.334 1078.67> 1466 120<676.944 1147.06>
VStem: 119 125<546.563 1019.44> 423 125<600.257 965.743> 1276 125<602.639 963.361> 1580 125<432.124 1019.44>
LayerCount: 2
Back
SplineSet
1276 1041 m 1xd8
 1276 1283 l 1
 1401 1283 l 1xb8
 1401 283 l 1
 1276 283 l 1
 1276 525 l 1
 1276 525 1245 263 912 263 c 3
 561 263 423 563 423 783 c 3
 423 1003 561 1303 912 1303 c 3
 1245 1303 1276 1041 1276 1041 c 1xd8
912 1183 m 3xd8
 662 1183 548 943 548 783 c 3
 548 623 662 383 912 383 c 3
 1162 383 1276 623 1276 783 c 3
 1276 943 1162 1183 912 1183 c 3xd8
1250 48 m 1
 1149 1 1032 -20 912 -20 c 3
 466 -20 119 337 119 783 c 3
 119 1229 466 1586 912 1586 c 3
 1033 1586 1155 1561 1256 1515 c 1
 1204 1390 l 1
 1116 1433 1017 1466 912 1466 c 3
 539 1466 244 1156 244 783 c 3
 244 410 539 100 912 100 c 1027
EndSplineSet
Fore
SplineSet
423 783 m 3xbf80
 423 1003 561 1303 912 1303 c 3
 1263 1303 1401 1003 1401 783 c 3
 1401 456 1402 340 1468 340 c 3
 1510 340 1580 458 1580 783 c 3
 1580 1156 1285 1466 912 1466 c 3
 539 1466 244 1156 244 783 c 3
 244 410 539 100 912 100 c 3
 1017 100 1116 129 1204 174 c 1
 1250 48 l 1
 1149 1 1032 -20 912 -20 c 3
 466 -20 119 337 119 783 c 3
 119 1229 466 1586 912 1586 c 3
 1358 1586 1705 1229 1705 783 c 3
 1705 337 1557 220 1468 220 c 3xdf80
 1383 220 1296 283 1296 525 c 1
 1296 525 1245 263 912 263 c 3
 561 263 423 563 423 783 c 3xbf80
548 783 m 3
 548 623 662 383 912 383 c 3xbf80
 1162 383 1276 623 1276 783 c 3
 1276 943 1162 1183 912 1183 c 3
 662 1183 548 943 548 783 c 3
EndSplineSet
Validated: 1
EndChar

StartChar: less
Encoding: 60 60 95
Width: 960
VWidth: 0
Flags: W
HStem: 330 660
LayerCount: 2
Back
SplineSet
120 870 m 1
 840 870 l 1
 840 750 l 1
 120 750 l 1
 120 870 l 1
120 570 m 1
 840 570 l 1
 840 450 l 1
 120 450 l 1
 120 570 l 1
EndSplineSet
Fore
SplineSet
320 660 m 1
 860 450 l 1
 860 330 l 1
 60 660 l 1
 860 990 l 1
 860 870 l 1
 320 660 l 1
EndSplineSet
Validated: 1
EndChar

StartChar: greater
Encoding: 62 62 96
Width: 960
VWidth: 0
Flags: W
HStem: 330 660
LayerCount: 2
Fore
SplineSet
640 660 m 1
 100 870 l 1
 100 990 l 1
 900 660 l 1
 100 330 l 1
 100 450 l 1
 640 660 l 1
EndSplineSet
Validated: 1
EndChar

StartChar: asterisk
Encoding: 42 42 97
Width: 960
VWidth: 0
Flags: W
VStem: 430 100<1095 1395>
LayerCount: 2
Fore
SplineSet
760 738 m 1
 660 665 l 1
 480 941 l 1
 300 665 l 1
 200 738 l 1
 400 1000 l 1
 102 1086 l 1
 140 1204 l 1
 430 1095 l 1
 418 1395 l 1
 542 1395 l 1
 530 1095 l 1
 820 1204 l 1
 858 1086 l 1
 560 1000 l 1
 760 738 l 1
EndSplineSet
Validated: 1
EndChar

StartChar: parenleft
Encoding: 40 40 98
Width: 640
VWidth: 0
Flags: W
HStem: 1618 20G<367.918 494>
VStem: 114 120<455.344 1110.66>
LayerCount: 2
Fore
SplineSet
374 -72 m 1
 374 -72 114 323 114 783 c 27
 114 1243 374 1638 374 1638 c 1
 494 1638 l 1
 494 1638 234 1243 234 783 c 27
 234 323 494 -72 494 -72 c 1
 374 -72 l 1
EndSplineSet
Validated: 1
EndChar

StartChar: parenright
Encoding: 41 41 99
Width: 640
VWidth: 0
Flags: W
HStem: 1618 20G<146 272.082>
VStem: 406 120<455.344 1110.66>
LayerCount: 2
Fore
SplineSet
266 -72 m 1
 146 -72 l 1
 146 -72 406 323 406 783 c 27
 406 1243 146 1638 146 1638 c 1
 266 1638 l 1
 266 1638 526 1243 526 783 c 27
 526 323 266 -72 266 -72 c 1
EndSplineSet
Validated: 1
EndChar

StartChar: percent
Encoding: 37 37 100
Width: 1440
VWidth: 0
Flags: W
HStem: -20 21G<75 239.197> 0 120<975.516 1194.48> 440 120<975.516 1194.48> 1006 120<245.516 464.484> 1446 120<245.516 464.484> 1566 20G<1200.8 1365>
VStem: 75 120<1176.52 1395.48> 515 120<1176.52 1395.48> 805 120<170.516 389.484> 1245 120<170.516 389.484>
LayerCount: 2
Fore
SplineSet
925 280 m 3x73c0
 925 192 997 120 1085 120 c 3
 1173 120 1245 192 1245 280 c 3
 1245 368 1173 440 1085 440 c 3
 997 440 925 368 925 280 c 3x73c0
805 280 m 3
 805 434 931 560 1085 560 c 3
 1239 560 1365 434 1365 280 c 3
 1365 126 1239 0 1085 0 c 3
 931 0 805 126 805 280 c 3
75 -20 m 1xb7c0
 1215 1586 l 1
 1365 1586 l 1
 225 -20 l 1
 75 -20 l 1xb7c0
195 1286 m 3
 195 1198 267 1126 355 1126 c 3
 443 1126 515 1198 515 1286 c 3
 515 1374 443 1446 355 1446 c 3x3bc0
 267 1446 195 1374 195 1286 c 3
75 1286 m 3
 75 1440 201 1566 355 1566 c 3
 509 1566 635 1440 635 1286 c 3
 635 1132 509 1006 355 1006 c 3
 201 1006 75 1132 75 1286 c 3
EndSplineSet
Validated: 1
EndChar

StartChar: degree
Encoding: 176 176 101
Width: 800
VWidth: 0
Flags: W
HStem: 1006 120<290.516 509.484> 1446 120<290.516 509.484>
VStem: 120 120<1176.52 1395.48> 560 120<1176.52 1395.48>
LayerCount: 2
Fore
SplineSet
240 1286 m 3
 240 1198 312 1126 400 1126 c 3
 488 1126 560 1198 560 1286 c 3
 560 1374 488 1446 400 1446 c 3
 312 1446 240 1374 240 1286 c 3
120 1286 m 3
 120 1440 246 1566 400 1566 c 3
 554 1566 680 1440 680 1286 c 3
 680 1132 554 1006 400 1006 c 3
 246 1006 120 1132 120 1286 c 3
EndSplineSet
Validated: 1
EndChar

StartChar: perthousand
Encoding: 8240 8240 102
Width: 2150
VWidth: 0
Flags: W
HStem: -20 21G<75 239.197> 0 120<975.516 1194.48 1685.52 1904.48> 440 120<975.516 1194.48 1685.52 1904.48> 1006 120<245.516 464.484> 1446 120<245.516 464.484> 1566 20G<1200.8 1365>
VStem: 75 120<1176.52 1395.48> 515 120<1176.52 1395.48> 805 120<170.516 389.484> 1245 120<170.516 389.484> 1515 120<170.516 389.484> 1955 120<170.516 389.484>
LayerCount: 2
Fore
SplineSet
1635 280 m 3x73f0
 1635 192 1707 120 1795 120 c 3
 1883 120 1955 192 1955 280 c 3
 1955 368 1883 440 1795 440 c 3
 1707 440 1635 368 1635 280 c 3x73f0
1515 280 m 3
 1515 434 1641 560 1795 560 c 3
 1949 560 2075 434 2075 280 c 3
 2075 126 1949 0 1795 0 c 3
 1641 0 1515 126 1515 280 c 3
925 280 m 3
 925 192 997 120 1085 120 c 3
 1173 120 1245 192 1245 280 c 3
 1245 368 1173 440 1085 440 c 3
 997 440 925 368 925 280 c 3
805 280 m 3
 805 434 931 560 1085 560 c 3
 1239 560 1365 434 1365 280 c 3
 1365 126 1239 0 1085 0 c 3
 931 0 805 126 805 280 c 3
75 -20 m 1xb7f0
 1215 1586 l 1
 1365 1586 l 1
 225 -20 l 1
 75 -20 l 1xb7f0
195 1286 m 3
 195 1198 267 1126 355 1126 c 3
 443 1126 515 1198 515 1286 c 3
 515 1374 443 1446 355 1446 c 3x3bf0
 267 1446 195 1374 195 1286 c 3
75 1286 m 3
 75 1440 201 1566 355 1566 c 3
 509 1566 635 1440 635 1286 c 3
 635 1132 509 1006 355 1006 c 3
 201 1006 75 1132 75 1286 c 3
EndSplineSet
Validated: 1
EndChar

StartChar: dagger
Encoding: 8224 8224 103
Width: 960
VWidth: 0
Flags: W
HStem: 1146 120<120 418 543 840> 1546 20G<418 543>
VStem: 418 125<695.991 1146 1266 1566> 435 90<0 411.621>
LayerCount: 2
Fore
SplineSet
525 0 m 1xd0
 435 0 l 1xd0
 435 0 418 300 418 1146 c 1
 120 1146 l 1
 120 1266 l 1
 418 1266 l 1
 418 1566 l 1
 543 1566 l 1
 543 1266 l 1
 840 1266 l 1
 840 1146 l 1
 543 1146 l 1xe0
 543 300 525 0 525 0 c 1xd0
EndSplineSet
Validated: 1
EndChar

StartChar: daggerdbl
Encoding: 8225 8225 104
Width: 960
VWidth: 0
Flags: W
HStem: -2 21G<418 543> 300 120<120 418 543 840> 1146 120<120 418 543 840> 1546 20G<418 543>
VStem: 418 125<-2 300 420 1146 1266 1566>
LayerCount: 2
Fore
SplineSet
418 1266 m 1
 418 1566 l 1
 543 1566 l 1
 543 1266 l 1
 840 1266 l 1
 840 1146 l 1
 543 1146 l 1
 543 420 l 1
 840 420 l 1
 840 300 l 1
 543 300 l 1
 543 -2 l 1
 418 -2 l 1
 418 300 l 1
 120 300 l 1
 120 420 l 1
 418 420 l 1
 418 1146 l 1
 120 1146 l 1
 120 1266 l 1
 418 1266 l 1
EndSplineSet
Validated: 1
EndChar

StartChar: plusminus
Encoding: 177 177 105
Width: 960
VWidth: 0
Flags: W
HStem: 200 120<120 840> 700 120<120 418 543 840>
VStem: 418 125<400 700 820 1120>
LayerCount: 2
Fore
SplineSet
120 320 m 1
 840 320 l 1
 840 200 l 1
 120 200 l 1
 120 320 l 1
418 820 m 1
 418 1120 l 1
 543 1120 l 1
 543 820 l 1
 840 820 l 1
 840 700 l 1
 543 700 l 1
 543 400 l 1
 418 400 l 1
 418 700 l 1
 120 700 l 1
 120 820 l 1
 418 820 l 1
EndSplineSet
Validated: 1
EndChar

StartChar: gravecomb
Encoding: 768 768 106
Width: 0
VWidth: 0
HStem: 1190 300
VStem: -898 470
AnchorPoint: "top" -608 1190 mark 0
LayerCount: 2
Fore
SplineSet
-898 1490 m 1
 -728 1490 l 1
 -428 1190 l 1
 -598 1190 l 1
 -898 1490 l 1
EndSplineSet
Validated: 1
EndChar

StartChar: agrave
Encoding: 224 224 107
Width: 1258
VWidth: 0
HStem: -20 120<441.334 777.328> 900 120<441.334 777.328> 980 20G<972 1097> 1190 300
VStem: 119 125<317.257 682.743> 318 470 972 125<0 242 319.639 680.361 758 1000>
LayerCount: 2
Fore
SplineSet
972 758 m 1xd8
 972 1000 l 1
 1097 1000 l 1xb8
 1097 0 l 1
 972 0 l 1
 972 242 l 1
 972 242 941 -20 608 -20 c 3
 257 -20 119 280 119 500 c 3
 119 720 257 1020 608 1020 c 3
 941 1020 972 758 972 758 c 1xd8
608 900 m 3xd8
 358 900 244 660 244 500 c 3
 244 340 358 100 608 100 c 3
 858 100 972 340 972 500 c 3
 972 660 858 900 608 900 c 3xd8
EndSplineSet
Refer: 106 768 N 1 0 0 1 1216 0 2
Validated: 1
Substitution2: "'ss03' Style Set 3 a.1" agrave.1
EndChar

StartChar: idotless
Encoding: 305 305 110
Width: 447
VWidth: 0
Flags: W
HStem: 980 20G<161 286>
VStem: 161 125<0 1000>
AnchorPoint: "bottom" 223 0 basechar 0
AnchorPoint: "top" 223 1190 basechar 0
LayerCount: 2
Fore
SplineSet
286 1000 m 1
 286 0 l 1
 161 0 l 1
 161 1000 l 1
 286 1000 l 1
EndSplineSet
Validated: 1
EndChar

StartChar: ff
Encoding: 64256 64256 113
Width: 1576
VWidth: 0
Flags: W
HStem: 880 120<58 211 336 999 1124 1472> 1461 125<412.866 684 1200.87 1472>
VStem: 211 125<0 880 1000 1384.13> 999 125<0 880 1000 1384.13>
LayerCount: 2
Fore
SplineSet
336 880 m 1
 336 0 l 1
 211 0 l 1
 211 880 l 1
 58 880 l 1
 58 1000 l 1
 211 1000 l 1
 211 1251 l 2
 211 1461 336 1586 546 1586 c 2
 684 1586 l 1
 684 1461 l 1
 546 1461 l 2
 441 1461 336 1402 336 1251 c 2
 336 1000 l 1
 999 1000 l 1
 999 1251 l 2
 999 1461 1124 1586 1334 1586 c 2
 1472 1586 l 1
 1472 1461 l 1
 1334 1461 l 2
 1229 1461 1124 1402 1124 1251 c 2
 1124 1000 l 1
 1472 1000 l 1
 1472 880 l 1
 1124 880 l 1
 1124 0 l 1
 999 0 l 1
 999 880 l 1
 336 880 l 1
EndSplineSet
Validated: 513
Ligature2: "'dlig' Discretionary Ligatures" f f
Substitution2: "'ss06' Style Set 6 f.hook" florinflorin
EndChar

StartChar: aacute
Encoding: 225 225 114
Width: 1258
VWidth: 0
HStem: -20 120<441.334 777.328> 900 120<441.334 777.328> 980 20G<972 1097> 1190 300
VStem: 119 125<317.257 682.743> 428 470 972 125<0 242 319.639 680.361 758 1000>
LayerCount: 2
Fore
SplineSet
972 758 m 1xd8
 972 1000 l 1
 1097 1000 l 1xb8
 1097 0 l 1
 972 0 l 1
 972 242 l 1
 972 242 941 -20 608 -20 c 3
 257 -20 119 280 119 500 c 3
 119 720 257 1020 608 1020 c 3
 941 1020 972 758 972 758 c 1xd8
608 900 m 3xd8
 358 900 244 660 244 500 c 3
 244 340 358 100 608 100 c 3
 858 100 972 340 972 500 c 3
 972 660 858 900 608 900 c 3xd8
EndSplineSet
Refer: 115 769 S 1 0 0 1 1216 0 2
Validated: 1
Substitution2: "'ss03' Style Set 3 a.1" aacute.1
EndChar

StartChar: acutecomb
Encoding: 769 769 115
Width: 0
VWidth: 0
Flags: W
HStem: 1190 300
VStem: -788 470
AnchorPoint: "top" -608 1190 mark 0
LayerCount: 2
Fore
SplineSet
-788 1190 m 1
 -488 1490 l 1
 -318 1490 l 1
 -618 1190 l 1
 -788 1190 l 1
EndSplineSet
Validated: 1
EndChar

StartChar: grave
Encoding: 96 96 116
Width: 960
VWidth: 0
Flags: W
HStem: 1190 300
VStem: 245 470
LayerCount: 2
Fore
SplineSet
245 1490 m 1
 415 1490 l 1
 715 1190 l 1
 545 1190 l 1
 245 1490 l 1
EndSplineSet
Validated: 1
EndChar

StartChar: circumflexcomb
Encoding: 770 770 122
Width: 0
VWidth: 0
Flags: W
HStem: 1190 300
AnchorPoint: "top" -608 1190 mark 0
LayerCount: 2
Fore
SplineSet
-608 1400 m 1
 -803 1190 l 1
 -973 1190 l 1
 -673 1490 l 1
 -543 1490 l 1
 -243 1190 l 1
 -413 1190 l 1
 -608 1400 l 1
EndSplineSet
Validated: 1
EndChar

StartChar: acircumflex
Encoding: 226 226 126
Width: 1258
VWidth: 0
HStem: -20 120<441.334 777.328> 900 120<441.334 777.328> 980 20G<972 1097> 1190 300
VStem: 119 125<317.257 682.743> 972 125<0 242 319.639 680.361 758 1000>
LayerCount: 2
Fore
SplineSet
972 758 m 1xd8
 972 1000 l 1
 1097 1000 l 1xb8
 1097 0 l 1
 972 0 l 1
 972 242 l 1
 972 242 941 -20 608 -20 c 3
 257 -20 119 280 119 500 c 3
 119 720 257 1020 608 1020 c 3
 941 1020 972 758 972 758 c 1xd8
608 900 m 3xd8
 358 900 244 660 244 500 c 3
 244 340 358 100 608 100 c 3
 858 100 972 340 972 500 c 3
 972 660 858 900 608 900 c 3xd8
EndSplineSet
Refer: 122 770 N 1 0 0 1 1216 0 2
Validated: 1
Substitution2: "'ss03' Style Set 3 a.1" acircumflex.1
EndChar

StartChar: asciicircum
Encoding: 94 94 129
Width: 960
VWidth: 0
Flags: W
HStem: 1190 300
LayerCount: 2
Fore
SplineSet
480 1400 m 1
 285 1190 l 1
 115 1190 l 1
 415 1490 l 1
 545 1490 l 1
 845 1190 l 1
 675 1190 l 1
 480 1400 l 1
EndSplineSet
Validated: 1
EndChar

StartChar: dotcomb
Encoding: 775 775 130
Width: 0
VWidth: 0
Flags: W
HStem: 1190 172<-676.898 -537.299>
VStem: -688 161<1201.17 1352.45>
AnchorPoint: "top" -608 1190 basechar 0
LayerCount: 2
Fore
SplineSet
-688 1276 m 3
 -688 1330 -645 1362 -608 1362 c 3
 -571 1362 -527 1332 -527 1276 c 3
 -527 1223 -571 1190 -608 1190 c 3
 -645 1190 -688 1228 -688 1276 c 3
EndSplineSet
Validated: 1
EndChar

StartChar: dieresiscomb
Encoding: 776 776 131
Width: 0
VWidth: 0
Flags: W
HStem: 1190 172<-869.898 -730.299 -479.898 -340.299>
VStem: -881 161<1201.17 1352.45> -491 161<1201.17 1352.45>
AnchorPoint: "top" -608 1190 basechar 0
LayerCount: 2
Fore
SplineSet
-491 1276 m 3
 -491 1330 -448 1362 -411 1362 c 3
 -374 1362 -330 1332 -330 1276 c 3
 -330 1223 -374 1190 -411 1190 c 3
 -448 1190 -491 1228 -491 1276 c 3
-881 1276 m 3
 -881 1330 -838 1362 -801 1362 c 3
 -764 1362 -720 1332 -720 1276 c 3
 -720 1223 -764 1190 -801 1190 c 3
 -838 1190 -881 1228 -881 1276 c 3
EndSplineSet
Validated: 1
EndChar

StartChar: adieresis
Encoding: 228 228 134
Width: 1258
VWidth: 0
HStem: -20 120<441.334 777.328> 900 120<441.334 777.328> 980 20G<972 1097> 1190 172<344.102 483.701 734.102 873.701>
VStem: 119 125<317.257 682.743> 333 161<1201.17 1352.45> 723 161<1201.17 1352.45> 972 125<0 242 319.639 680.361 758 1000>
LayerCount: 2
Fore
SplineSet
972 758 m 1xd8
 972 1000 l 1
 1097 1000 l 1xb8
 1097 0 l 1
 972 0 l 1
 972 242 l 1
 972 242 941 -20 608 -20 c 3
 257 -20 119 280 119 500 c 3
 119 720 257 1020 608 1020 c 3
 941 1020 972 758 972 758 c 1xd8
608 900 m 3xd8
 358 900 244 660 244 500 c 3
 244 340 358 100 608 100 c 3
 858 100 972 340 972 500 c 3
 972 660 858 900 608 900 c 3xd8
EndSplineSet
Refer: 131 776 N 1 0 0 1 1214 0 2
Validated: 1
Substitution2: "'ss03' Style Set 3 a.1" adieresis.1
EndChar

StartChar: asciitilde
Encoding: 126 126 138
Width: 960
VWidth: 0
Flags: W
HStem: 1136 120<546.37 770.642> 1296 120<189.358 413.63>
LayerCount: 2
Fore
SplineSet
74 1295 m 1
 74 1295 205 1416 300 1416 c 3
 460 1416 540 1256 660 1256 c 3
 755 1256 840 1366 840 1366 c 1
 886 1255 l 1
 886 1255 755 1136 660 1136 c 3
 500 1136 420 1296 300 1296 c 3
 205 1296 120 1186 120 1186 c 1
 74 1295 l 1
EndSplineSet
Validated: 1
EndChar

StartChar: tildecomb
Encoding: 771 771 139
Width: 0
VWidth: 0
Flags: W
HStem: 1136 120<-541.63 -317.358> 1296 120<-898.642 -674.37>
AnchorPoint: "top" -608 1190 basechar 0
LayerCount: 2
Fore
SplineSet
-1014 1295 m 1
 -1014 1295 -883 1416 -788 1416 c 3
 -628 1416 -548 1256 -428 1256 c 3
 -333 1256 -248 1366 -248 1366 c 1
 -202 1255 l 1
 -202 1255 -333 1136 -428 1136 c 3
 -588 1136 -668 1296 -788 1296 c 3
 -883 1296 -968 1186 -968 1186 c 1
 -1014 1295 l 1
EndSplineSet
Validated: 1
EndChar

StartChar: atilde
Encoding: 227 227 142
Width: 1258
VWidth: 0
HStem: -20 120<441.334 777.328> 900 120<441.334 777.328> 980 20G<972 1097> 1142 120<674.37 898.642> 1302 120<317.358 541.63>
VStem: 119 125<317.257 682.743> 972 125<0 242 319.639 680.361 758 1000>
LayerCount: 2
Fore
SplineSet
972 758 m 1xd8
 972 1000 l 1
 1097 1000 l 1xb8
 1097 0 l 1
 972 0 l 1
 972 242 l 1
 972 242 941 -20 608 -20 c 3
 257 -20 119 280 119 500 c 3
 119 720 257 1020 608 1020 c 3
 941 1020 972 758 972 758 c 1xd8
608 900 m 3xd8
 358 900 244 660 244 500 c 3
 244 340 358 100 608 100 c 3
 858 100 972 340 972 500 c 3
 972 660 858 900 608 900 c 3xd8
EndSplineSet
Refer: 139 771 N 1 0 0 1 1216 6 2
Validated: 1
Substitution2: "'ss03' Style Set 3 a.1" atilde.1
EndChar

StartChar: dieresis
Encoding: 168 168 167
Width: 960
VWidth: 0
Flags: W
HStem: 1190 172<215.102 354.701 605.102 744.701>
VStem: 204 161<1201.17 1352.45> 594 161<1201.17 1352.45>
AnchorPoint: "top" 477 1190 basechar 0
LayerCount: 2
Fore
SplineSet
594 1276 m 3
 594 1330 637 1362 674 1362 c 3
 711 1362 755 1332 755 1276 c 3
 755 1223 711 1190 674 1190 c 3
 637 1190 594 1228 594 1276 c 3
204 1276 m 3
 204 1330 247 1362 284 1362 c 3
 321 1362 365 1332 365 1276 c 3
 365 1223 321 1190 284 1190 c 3
 247 1190 204 1228 204 1276 c 3
EndSplineSet
Validated: 1
EndChar

StartChar: Epsilonlatin
Encoding: 400 400 170
Width: 1216
VWidth: 0
Flags: W
HStem: -20 120<470.423 994.441> 760 120<517.298 740> 1466 120<524.037 932.179>
VStem: 119 125<283.953 573.548> 220 125<1025.96 1306.11>
LayerCount: 2
Fore
SplineSet
463 830 m 1xf0
 293 887 220 1035 220 1163 c 3
 220 1363 394 1586 740 1586 c 3
 805 1586 868 1586 1046 1518 c 1
 1000 1392 l 1
NamedP: "868, 174"
 952 1421 808 1466 740 1466 c 3
 457 1466 345 1303 345 1163 c 3xe8
 345 1023 467 880 740 880 c 1
 740 760 l 1
 367 760 244 569 244 429 c 3
 244 289 368 100 740 100 c 3
 845 100 984 132 1072 175 c 1
 1124 50 l 1
 1023 4 861 -20 740 -20 c 3
 294 -20 119 229 119 429 c 3
 119 574 215 761 463 830 c 1xf0
EndSplineSet
Validated: 1
EndChar

StartChar: schwa
Encoding: 601 601 171
Width: 1186
VWidth: 0
Flags: W
HStem: -20 120<425.19 743.515> 440 120<244 937> 900 120<379.22 743.515>
VStem: 937 130<307.319 440 560 692.681>
CounterMasks: 1 e0
LayerCount: 2
Fore
SplineSet
578 900 m 3
 505 900 406 871 308 826 c 1
 262 952 l 1
 373 999 490 1020 578 1020 c 3
 929 1020 1067 720 1067 500 c 3
 1067 280 929 -20 578 -20 c 3
 252 -20 116 280 116 500 c 3
 116 519 117 540 119 560 c 1
 937 560 l 1
 913 714 798 900 578 900 c 3
244 440 m 1
 258 286 383 100 578 100 c 3
 798 100 913 286 937 440 c 1
 244 440 l 1
EndSplineSet
Validated: 1
EndChar

StartChar: alphalatin
Encoding: 593 593 172
Width: 1258
VWidth: 0
Flags: W
HStem: -20 120<441.334 777.328> 900 120<441.334 777.328> 980 20G<972 1097>
VStem: 119 125<317.257 682.743> 972 125<0 242 319.639 680.361 758 1000>
LayerCount: 2
Fore
SplineSet
972 758 m 1xd8
 972 1000 l 1
 1097 1000 l 1xb8
 1097 0 l 1
 972 0 l 1
 972 242 l 1
 972 242 941 -20 608 -20 c 3
 257 -20 119 280 119 500 c 3
 119 720 257 1020 608 1020 c 3
 941 1020 972 758 972 758 c 1xd8
608 900 m 3xd8
 358 900 244 660 244 500 c 3
 244 340 358 100 608 100 c 3
 858 100 972 340 972 500 c 3
 972 660 858 900 608 900 c 3xd8
EndSplineSet
Validated: 1
EndChar

StartChar: alphalatinturned
Encoding: 594 594 173
Width: 1258
VWidth: 0
Flags: W
HStem: -20 120<480.672 816.666> 900 120<480.672 816.666> 980 20G<237.923 286>
VStem: 161 125<0 242 319.639 680.361 758 948> 1014 125<317.257 682.743>
LayerCount: 2
Fore
SplineSet
286 242 m 1xd8
 286 0 l 1
 161 0 l 1
 161 948 l 1
 286 1000 l 1xb8
 286 758 l 1
 286 758 317 1020 650 1020 c 3
 1001 1020 1139 720 1139 500 c 3
 1139 280 1001 -20 650 -20 c 3
 317 -20 286 242 286 242 c 1xd8
650 100 m 3
 900 100 1014 340 1014 500 c 3
 1014 660 900 900 650 900 c 3xd8
 400 900 286 660 286 500 c 3
 286 340 400 100 650 100 c 3
EndSplineSet
Validated: 1
EndChar

StartChar: thorn
Encoding: 254 254 174
Width: 1258
VWidth: 0
Flags: W
HStem: -20 120<480.672 816.666> 900 120<480.672 816.666> 1618 20G<237.923 286>
VStem: 161 125<-585 242 319.639 680.361 758 1586> 1014 125<317.257 682.743>
AnchorPoint: "bottom" 650 -585 basechar 0
AnchorPoint: "top" 650 1706 basechar 0
LayerCount: 2
Fore
SplineSet
286 242 m 1
 286 -585 l 1
 161 -585 l 1
 161 1586 l 1
 286 1638 l 1
 286 758 l 1
 286 758 317 1020 650 1020 c 3
 1001 1020 1139 720 1139 500 c 3
 1139 280 1001 -20 650 -20 c 3
 317 -20 286 242 286 242 c 1
650 100 m 3
 900 100 1014 340 1014 500 c 3
 1014 660 900 900 650 900 c 3
 400 900 286 660 286 500 c 3
 286 340 400 100 650 100 c 3
EndSplineSet
Validated: 1
EndChar

StartChar: jdotless
Encoding: 567 567 175
Width: 447
VWidth: 0
Flags: W
HStem: -591 125<-187 84.1337> 980 20G<161 286>
VStem: 161 125<-389.134 1000>
AnchorPoint: "bottom" 47 -591 basechar 0
AnchorPoint: "top" 223 1190 basechar 0
LayerCount: 2
Fore
SplineSet
161 -256 m 2
 161 1000 l 1
 286 1000 l 1
 286 -256 l 2
 286 -466 161 -591 -49 -591 c 2
 -187 -591 l 1
 -187 -466 l 1
 -49 -466 l 2
 56 -466 161 -407 161 -256 c 2
EndSplineSet
Validated: 1
Substitution2: "'ss05' Style Set 5 geometric" jdotless.1
EndChar

StartChar: oopen
Encoding: 596 596 176
Width: 1012
VWidth: 0
Flags: W
HStem: -20 120<211.243 570.666> 900 120<216.257 570.666>
VStem: 768 125<317.257 682.743>
LayerCount: 2
Fore
SplineSet
144 824 m 1
 92 949 l 1
 193 995 315 1020 404 1020 c 3
 755 1020 893 720 893 500 c 3
 893 280 755 -20 404 -20 c 3
 316 -20 199 1 98 48 c 1
 144 174 l 1
NamedP: "868, 174"
 232 129 331 100 404 100 c 3
 654 100 768 340 768 500 c 3
 768 660 654 900 404 900 c 3
 331 900 232 867 144 824 c 1
EndSplineSet
Validated: 1
EndChar

StartChar: Oopen
Encoding: 390 390 177
Width: 1348
VWidth: 0
Flags: W
HStem: -20 120<212.235 671.056> 1466 120<217.51 671.056>
VStem: 1104 125<546.563 1019.44>
AnchorPoint: "bottom" 436 0 basechar 0
AnchorPoint: "top" 436 1706 basechar 0
LayerCount: 2
Fore
SplineSet
144 174 m 1
 232 129 331 100 436 100 c 3
 809 100 1104 410 1104 783 c 3
 1104 1156 809 1466 436 1466 c 3
 331 1466 232 1433 144 1390 c 1
 92 1515 l 1
 193 1561 315 1586 436 1586 c 3
 882 1586 1229 1229 1229 783 c 3
 1229 337 882 -20 436 -20 c 3
 316 -20 199 1 98 48 c 1
 144 174 l 1
EndSplineSet
Validated: 1
EndChar

StartChar: florin
Encoding: 402 402 178
Width: 788
VWidth: 0
Flags: W
HStem: -591 125<-137 134.134> 880 120<58 211 336 684> 1461 125<412.866 684>
VStem: 211 125<-389.134 880 1000 1384.13>
LayerCount: 2
Fore
SplineSet
336 -256 m 2
 336 -466 211 -591 1 -591 c 2
 -137 -591 l 1
 -137 -466 l 1
 1 -466 l 2
 106 -466 211 -407 211 -256 c 2
 211 880 l 1
 58 880 l 1
 58 1000 l 1
 211 1000 l 1
 211 1251 l 2
 211 1461 336 1586 546 1586 c 2
 684 1586 l 1
 684 1461 l 1
 546 1461 l 2
 441 1461 336 1402 336 1251 c 2
 336 1000 l 1
 684 1000 l 1
 684 880 l 1
 336 880 l 1
 336 -256 l 2
EndSplineSet
Validated: 1
EndChar

StartChar: cedilla
Encoding: 184 184 180
Width: 940
VWidth: 0
Flags: W
HStem: -460 120<337.686 533.987> -140 76<420 527.804>
VStem: 418 60<-41.8133 0> 553 120<-319.145 -159.431>
LayerCount: 2
Fore
SplineSet
418 0 m 1
 478 0 l 1
 454 -70 l 1
 454 -70 461 -64 496 -64 c 3
 577 -64 673 -144 673 -240 c 3
 673 -392 544 -460 448 -460 c 3
 354 -460 268 -383 268 -383 c 1
 314 -272 l 1
 314 -272 365 -340 448 -340 c 3
 510 -340 553 -290 553 -240 c 3
 553 -190 510 -140 448 -140 c 3
 392 -140 369 -165 369 -165 c 1
 418 0 l 1
EndSplineSet
Validated: 1
EndChar

StartChar: cedillacomb
Encoding: 807 807 181
Width: 0
VWidth: 0
Flags: W
HStem: -460 120<-718.314 -522.013> -140 76<-636 -528.196>
VStem: -638 60<-41.8133 0> -503 120<-319.145 -159.431>
AnchorPoint: "bottom" -608 0 basechar 0
LayerCount: 2
Fore
SplineSet
-638 0 m 1
 -578 0 l 1
 -602 -70 l 1
 -602 -70 -595 -64 -560 -64 c 3
 -479 -64 -383 -144 -383 -240 c 3
 -383 -392 -512 -460 -608 -460 c 3
 -702 -460 -788 -383 -788 -383 c 1
 -742 -272 l 1
 -742 -272 -691 -340 -608 -340 c 3
 -546 -340 -503 -290 -503 -240 c 3
 -503 -190 -546 -140 -608 -140 c 3
 -664 -140 -687 -165 -687 -165 c 1
 -638 0 l 1
EndSplineSet
Validated: 1
EndChar

StartChar: acute
Encoding: 180 180 183
Width: 960
VWidth: 0
Flags: W
HStem: 1190 300
VStem: 245 470
LayerCount: 2
Fore
SplineSet
245 1190 m 1
 545 1490 l 1
 715 1490 l 1
 415 1190 l 1
 245 1190 l 1
EndSplineSet
Validated: 1
EndChar

StartChar: tildedash
Encoding: 8275 8275 184
Width: 960
VWidth: 0
Flags: W
HStem: 420 120<546.37 770.642> 580 120<189.358 413.63>
LayerCount: 2
Fore
SplineSet
74 579 m 1
 74 579 205 700 300 700 c 3
 460 700 540 540 660 540 c 3
 755 540 840 650 840 650 c 1
 886 539 l 1
 886 539 755 420 660 420 c 3
 500 420 420 580 300 580 c 3
 205 580 120 470 120 470 c 1
 74 579 l 1
EndSplineSet
Validated: 1
EndChar

StartChar: braceleft
Encoding: 123 123 185
Width: 640
VWidth: 0
Flags: W
HStem: -72 120<319.089 499> 1518 120<319.089 499>
VStem: 151 125<91.6208 657.599 908.401 1474.38>
LayerCount: 2
Back
SplineSet
146 -72 m 1xe0
 146 1638 l 1
 494 1638 l 1
 494 1518 l 1xe0
 271 1518 l 1
 271 48 l 1xd0
 494 48 l 1
 494 -72 l 1
 146 -72 l 1xe0
EndSplineSet
Fore
SplineSet
151 253 m 2
 151 280 l 2
 151 660 106 733 37 783 c 1
 106 833 151 906 151 1286 c 2
 151 1313 l 2
 151 1431 176 1638 499 1638 c 1
 499 1518 l 1
 276 1518 276 1431 276 1313 c 2
 276 1286 l 2
 276 956 223 833 146 783 c 1
 223 733 276 610 276 280 c 2
 276 253 l 2
 276 135 276 48 499 48 c 1
 499 -72 l 1
 176 -72 151 135 151 253 c 2
EndSplineSet
Validated: 1
EndChar

StartChar: braceright
Encoding: 125 125 186
Width: 640
VWidth: 0
Flags: W
HStem: -72 120<141 320.911> 1518 120<141 320.911>
VStem: 364 125<91.6208 657.599 908.401 1474.38>
LayerCount: 2
Fore
SplineSet
489 253 m 2
 489 135 464 -72 141 -72 c 1
 141 48 l 1
 364 48 364 135 364 253 c 2
 364 280 l 2
 364 610 417 733 494 783 c 1
 417 833 364 956 364 1286 c 2
 364 1313 l 2
 364 1431 364 1518 141 1518 c 1
 141 1638 l 1
 464 1638 489 1431 489 1313 c 2
 489 1286 l 2
 489 906 534 833 603 783 c 1
 534 733 489 660 489 280 c 2
 489 253 l 2
EndSplineSet
Validated: 1
EndChar

StartChar: ampersand
Encoding: 38 38 187
Width: 1480
VWidth: 0
Flags: W
HStem: -20 120<470.423 944.065> 0 125<1091.16 1366> 760 120<517.298 893 1018 1366> 1466 120<524.037 932.179>
VStem: 119 125<283.953 573.548> 220 125<1025.96 1306.11> 893 125<196.973 760 880 1106>
AnchorPoint: "bottom" 1132 0 basechar 0
LayerCount: 2
Back
SplineSet
463 830 m 1xf0
 293 887 220 1035 220 1163 c 3
 220 1363 394 1586 740 1586 c 3
 805 1586 868 1586 1046 1518 c 1
 1000 1392 l 1
NamedP: "868, 174"
 952 1421 808 1466 740 1466 c 3
 457 1466 345 1303 345 1163 c 3xe8
 345 1023 467 880 740 880 c 1
 740 760 l 1
 367 760 244 569 244 429 c 3
 244 289 368 100 740 100 c 3
 845 100 984 132 1072 175 c 1
 1124 50 l 1
 1023 4 861 -20 740 -20 c 3
 294 -20 119 229 119 429 c 3
 119 574 215 761 463 830 c 1xf0
EndSplineSet
Fore
SplineSet
948 130 m 1xba
 912 184 893 253 893 335 c 2
 893 760 l 1
 740 760 l 2
 367 760 244 569 244 429 c 3
 244 289 368 100 740 100 c 3
 803 100 879 111 948 130 c 1xba
1018 760 m 1
 1018 335 l 2
 1018 184 1123 125 1228 125 c 2
 1366 125 l 1
 1366 0 l 1
 1228 0 l 2x76
 1168 0 1115 10 1070 29 c 1
 971 -4 841 -20 740 -20 c 3
 294 -20 119 229 119 429 c 3xba
 119 574 215 761 463 830 c 1
 293 887 220 1035 220 1163 c 3
 220 1363 394 1586 740 1586 c 3
 805 1586 868 1586 1046 1518 c 1
 1000 1392 l 1
 952 1421 808 1466 740 1466 c 3
 457 1466 345 1303 345 1163 c 3xb6
 345 1023 467 880 740 880 c 2
 893 880 l 1
 893 1106 l 1
 1018 1158 l 1
 1018 880 l 1
 1366 880 l 1
 1366 760 l 1
 1018 760 l 1
EndSplineSet
Validated: 1
EndChar

StartChar: exclamdown
Encoding: 161 161 188
Width: 640
VWidth: 0
Flags: W
HStem: 992 20G<215 305> 1180 192<178.881 341.119>
VStem: 164 192<1194.88 1357.12> 190 140<-194 285.648>
LayerCount: 2
Fore
SplineSet
305 1012 m 1xd0
 305 1012 330 712 330 -194 c 1
 190 -194 l 1
 190 712 215 1012 215 1012 c 1
 305 1012 l 1xd0
164 1276 m 3xe0
 164 1330 206 1372 260 1372 c 3
 314 1372 356 1330 356 1276 c 3
 356 1222 314 1180 260 1180 c 3
 206 1180 164 1222 164 1276 c 3xe0
EndSplineSet
Validated: 1
EndChar

StartChar: questiondown
Encoding: 191 191 189
Width: 960
VWidth: 0
Flags: W
HStem: -210 120<364.037 772.179> 992 20G<535 625> 1180 192<498.881 661.119>
VStem: 60 125<69.8893 384.235> 484 192<1194.88 1357.12> 535 90<807.215 1012>
LayerCount: 2
Fore
SplineSet
676 1276 m 3xf8
 676 1222 634 1180 580 1180 c 3
 526 1180 484 1222 484 1276 c 3
 484 1330 526 1372 580 1372 c 3
 634 1372 676 1330 676 1276 c 3xf8
625 1012 m 1xf4
 625 426 185 620 185 213 c 3
 185 73 297 -90 580 -90 c 3
 648 -90 792 -45 840 -16 c 1
NamedP: "868, 174"
 886 -142 l 1
 708 -210 645 -210 580 -210 c 3
 234 -210 60 13 60 213 c 3
 60 690 535 546 535 1012 c 1
 625 1012 l 1xf4
EndSplineSet
Validated: 1
EndChar

StartChar: slong
Encoding: 383 383 190
Width: 447
VWidth: 0
Flags: W
HStem: 1461 125<362.866 634>
VStem: 161 125<0 1384.13>
LayerCount: 2
Fore
SplineSet
161 0 m 1
 161 1251 l 2
 161 1461 286 1586 496 1586 c 2
 634 1586 l 1
 634 1461 l 1
 496 1461 l 2
 391 1461 286 1402 286 1251 c 2
 286 0 l 1
 161 0 l 1
EndSplineSet
Validated: 513
Substitution2: "'ss06' Style Set 6 f.hook" esh
EndChar

StartChar: middot
Encoding: 183 183 191
Width: 640
VWidth: 0
Flags: W
HStem: 464 192<238.881 401.119>
VStem: 224 192<478.881 641.119>
LayerCount: 2
Fore
SplineSet
224 560 m 3
 224 614 266 656 320 656 c 3
 374 656 416 614 416 560 c 3
 416 506 374 464 320 464 c 3
 266 464 224 506 224 560 c 3
EndSplineSet
Validated: 1
EndChar

StartChar: oe
Encoding: 339 339 192
Width: 2039
VWidth: 0
Flags: W
HStem: -20 120<441.334 776.261 1293.99 1659.78> 440 120<1102 1795> 900 120<441.334 776.261 1293.99 1613.81>
VStem: 119 125<317.257 682.743> 972 130<319.639 440 560 680.361>
CounterMasks: 1 e0
AnchorPoint: "bottom" 1035 0 basechar 0
AnchorPoint: "center" 1035 500 basechar 0
AnchorPoint: "top" 1035 1190 basechar 0
LayerCount: 2
Fore
SplineSet
1102 560 m 1
 1795 560 l 1
 1781 714 1656 900 1461 900 c 3
 1241 900 1126 714 1102 560 c 1
244 500 m 3
 244 340 358 100 608 100 c 3
 858 100 972 340 972 500 c 3
 972 660 858 900 608 900 c 3
 358 900 244 660 244 500 c 3
119 500 m 3
 119 720 257 1020 608 1020 c 3
 827 1020 964 903 1035 750 c 1
 1106 903 1242 1020 1461 1020 c 3
 1787 1020 1923 720 1923 500 c 3
 1923 481 1922 460 1920 440 c 1
 1102 440 l 1
 1126 286 1241 100 1461 100 c 3
 1534 100 1633 129 1731 174 c 1
 1777 48 l 1
 1666 1 1549 -20 1461 -20 c 3
 1242 -20 1106 97 1035 250 c 1
 964 97 827 -20 608 -20 c 3
 257 -20 119 280 119 500 c 3
EndSplineSet
Validated: 1
EndChar

StartChar: OE
Encoding: 338 338 193
Width: 2433
VWidth: 0
Flags: W
HStem: -20 120<676.944 1142.01> 5 120<1705 2319> 760 120<1705 2313> 1441 120<1705 2319> 1466 120<676.944 1142.01>
VStem: 119 125<546.563 1019.44> 1580 125<125 346 549.848 760 880 1016.15 1220 1441>
AnchorPoint: "top" 1219 1706 basechar 0
LayerCount: 2
Fore
SplineSet
2319 1561 m 1x36
 2319 1441 l 1
 1705 1441 l 1
 1705 880 l 1
 2313 880 l 1
 2313 760 l 1
 1705 760 l 1
 1705 125 l 1
 2319 125 l 1
 2319 5 l 1
 1580 5 l 1x76
 1580 346 l 1
 1440 125 1196 -20 912 -20 c 3
 466 -20 119 337 119 783 c 3
 119 1229 466 1586 912 1586 c 3xae
 1196 1586 1440 1441 1580 1220 c 1
 1580 1561 l 1
 2319 1561 l 1x36
912 1466 m 3xae
 539 1466 244 1156 244 783 c 3
 244 410 539 100 912 100 c 3
 1285 100 1580 410 1580 783 c 3
 1580 1156 1285 1466 912 1466 c 3xae
EndSplineSet
Validated: 1
EndChar

StartChar: macron
Encoding: 175 175 194
Width: 960
VWidth: 0
Flags: W
HStem: 1216 120<120 840>
LayerCount: 2
Fore
SplineSet
120 1336 m 1
 840 1336 l 1
 840 1216 l 1
 120 1216 l 1
 120 1336 l 1
EndSplineSet
Validated: 1
EndChar

StartChar: macroncomb
Encoding: 772 772 195
Width: 0
VWidth: 0
Flags: W
HStem: 1216 120<-969 -249>
AnchorPoint: "top" -608 1190 mark 0
LayerCount: 2
Fore
SplineSet
-969 1336 m 1
 -249 1336 l 1
 -249 1216 l 1
 -969 1216 l 1
 -969 1336 l 1
EndSplineSet
Validated: 1
EndChar

StartChar: caroncomb
Encoding: 780 780 196
Width: 0
VWidth: 0
Flags: W
HStem: 1190 300
AnchorPoint: "top" -608 1190 mark 0
LayerCount: 2
Fore
SplineSet
-609 1280 m 1
 -414 1490 l 1
 -244 1490 l 1
 -544 1190 l 1
 -674 1190 l 1
 -974 1490 l 1
 -804 1490 l 1
 -609 1280 l 1
EndSplineSet
Validated: 1
EndChar

StartChar: mu
Encoding: 956 956 197
AltUni2: 0000b5.ffffffff.0
Width: 1226
VWidth: 0
Flags: W
HStem: -10 120<397.947 745.328> 980 20G<140 265 940 1065>
VStem: 140 125<-591 103 262.307 1000> 940 125<0 242 325.197 1000>
AnchorPoint: "top" 603 1190 basechar 0
LayerCount: 2
Fore
SplineSet
1065 0 m 1
 940 0 l 1
 940 242 l 1
 940 242 909 -10 576 -10 c 3
 435 -10 334 32 265 103 c 1
 265 -591 l 1
 140 -591 l 1
 140 1000 l 1
 265 1000 l 1
 265 510 l 2
 265 252 351 110 576 110 c 3
 826 110 940 340 940 510 c 2
 940 1000 l 1
 1065 1000 l 1
 1065 0 l 1
EndSplineSet
Validated: 1
EndChar

StartChar: strokecomb
Encoding: 823 823 198
Width: 0
VWidth: 0
Flags: W
HStem: -19 21G<-1003 -855.404> 1001 20G<-360.596 -213>
AnchorPoint: "center" -608 500 mark 0
LayerCount: 2
Fore
SplineSet
-1003 -19 m 1
 -348 1021 l 1
 -213 1021 l 1
 -868 -19 l 1
 -1003 -19 l 1
EndSplineSet
Validated: 1
EndChar

StartChar: oslash
Encoding: 248 248 199
Width: 1216
VWidth: 0
Flags: W
HStem: -20 120<450.21 774.666> 900 120<441.334 765.79>
VStem: 119 125<314.865 682.743> 972 125<317.257 685.135>
AnchorPoint: "top" 608 1190 basechar 0
AnchorPoint: "center" 608 500 basechar 0
LayerCount: 2
Fore
SplineSet
608 900 m 3
 358 900 244 660 244 500 c 3
 244 409 281 293 358 209 c 1
 768 861 l 1
 723 885 669 900 608 900 c 3
448 139 m 1
 493 115 547 100 608 100 c 3
 858 100 972 340 972 500 c 3
 972 591 935 707 858 791 c 1
 448 139 l 1
929 903 m 1
 1046 795 1097 633 1097 500 c 3
 1097 280 959 -20 608 -20 c 3
 519 -20 444 0 381 32 c 1
 348 -20 l 1
 213 -20 l 1
 287 97 l 1
 170 205 119 367 119 500 c 3
 119 720 257 1020 608 1020 c 3
 697 1020 772 1000 835 968 c 1
 868 1020 l 1
 1003 1020 l 1
 929 903 l 1
EndSplineSet
Validated: 1
EndChar

StartChar: Oslash
Encoding: 216 216 200
Width: 1824
VWidth: 0
Flags: W
HStem: -20 120<674.011 1147.06> 1466 120<676.944 1149.99>
VStem: 119 125<541.201 1019.44> 1580 125<546.563 1024.8>
AnchorPoint: "top" 912 1706 basechar 0
AnchorPoint: "center" 912 783 basechar 0
LayerCount: 2
Fore
SplineSet
912 1466 m 3
 539 1466 244 1156 244 783 c 3
 244 590 322 414 450 289 c 1
 1282 1352 l 1
 1176 1424 1050 1466 912 1466 c 3
119 783 m 3
 119 1229 466 1586 912 1586 c 3
 1079 1586 1233 1535 1359 1449 c 1
 1466 1586 l 1
 1616 1586 l 1
 1451 1376 l 1
 1608 1230 1705 1019 1705 783 c 3
 1705 337 1358 -20 912 -20 c 3
 745 -20 591 31 465 117 c 1
 358 -20 l 1
 208 -20 l 1
 373 190 l 1
 216 336 119 547 119 783 c 3
542 214 m 1
 648 142 774 100 912 100 c 3
 1285 100 1580 410 1580 783 c 3
 1580 976 1502 1152 1374 1277 c 1
 542 214 l 1
EndSplineSet
Validated: 1
EndChar

StartChar: strokecapitalcomb
Encoding: 824 824 201
Width: 0
VWidth: 0
Flags: W
HStem: -20 21G<-1616 -1450.33> 1566 20G<-373.666 -208>
AnchorPoint: "center" -912 783 basechar 0
LayerCount: 2
Fore
SplineSet
-1616 -20 m 1
 -358 1586 l 1
 -208 1586 l 1
 -1466 -20 l 1
 -1616 -20 l 1
EndSplineSet
Validated: 1
EndChar

StartChar: fraction
Encoding: 8260 8260 202
Width: 1600
VWidth: 0
Flags: W
HStem: -20 21G<96 261.666> 1566 20G<1338.33 1504>
AnchorPoint: "center" 800 783.043 basechar 0
LayerCount: 2
Fore
SplineSet
96 -20 m 1
 1354 1586 l 1
 1504 1586 l 1
 246 -20 l 1
 96 -20 l 1
EndSplineSet
Validated: 1
EndChar

StartChar: Thorn
Encoding: 222 222 203
Width: 1190
VWidth: 0
Flags: W
HStem: -2 21G<161 286> 350 120<286 756.17> 1096 120<286 756.17> 1546 20G<161 286>
VStem: 161 125<-2 350 470 1096 1216 1566> 982 125<645.802 920.198>
AnchorPoint: "bottom" 529 0 basechar 0
AnchorPoint: "top" 529 1706 basechar 0
LayerCount: 2
Fore
SplineSet
486 470 m 2
 859 470 982 643 982 783 c 3
 982 923 859 1096 486 1096 c 2
 286 1096 l 1
 286 470 l 1
 486 470 l 2
286 350 m 1
 286 -2 l 1
 161 -2 l 1
 161 1566 l 1
 286 1566 l 1
 286 1216 l 1
 486 1216 l 2
 932 1216 1107 983 1107 783 c 3
 1107 583 932 350 486 350 c 2
 286 350 l 1
EndSplineSet
Validated: 1
EndChar

StartChar: midbarcomb
Encoding: 822 822 204
Width: 0
VWidth: 0
Flags: W
HStem: 723 120<-1225 -599>
VStem: -1225 626<723 843>
AnchorPoint: "center" -912 783 mark 0
AnchorPoint: "centerD" -1010 783 basechar 0
LayerCount: 2
Fore
SplineSet
-1225 843 m 1
 -599 843 l 1
 -599 723 l 1
 -1225 723 l 1
 -1225 843 l 1
EndSplineSet
Validated: 1
EndChar

StartChar: Eth
Encoding: 208 208 205
Width: 1438
VWidth: 0
Flags: W
HStem: 0 120<326 757.313> 723 120<48 201 326 674> 1446 120<326 757.313>
VStem: 201 125<120 723 843 1446> 1194 125<548.712 1017.29>
CounterMasks: 1 e0
AnchorPoint: "bottom" 526 0 basechar 0
AnchorPoint: "top" 486 1706 basechar 0
AnchorPoint: "centerD" 263 783 basechar 0
LayerCount: 2
Fore
SplineSet
326 120 m 1
 526 120 l 2
 899 120 1194 410 1194 783 c 3
 1194 1156 899 1446 526 1446 c 2
 326 1446 l 1
 326 843 l 1
 674 843 l 1
 674 723 l 1
 326 723 l 1
 326 120 l 1
201 723 m 1
 48 723 l 1
 48 843 l 1
 201 843 l 1
 201 1566 l 1
 526 1566 l 2
 972 1566 1319 1229 1319 783 c 3
 1319 337 972 0 526 0 c 2
 201 0 l 1
 201 723 l 1
EndSplineSet
Validated: 1
EndChar

StartChar: ringcomb
Encoding: 778 778 206
Width: 0
VWidth: 0
Flags: W
HStem: 1140 110<-698.216 -516.191> 1490 110<-698.012 -515.988>
VStem: -837 110<1278.99 1461.01> -487 110<1278.99 1461.01>
AnchorPoint: "top" -608 1190 basechar 0
LayerCount: 2
Fore
SplineSet
-377 1370 m 3
 -377 1243 -480 1140 -607 1140 c 3
 -734 1140 -837 1243 -837 1370 c 3
 -837 1497 -734 1600 -607 1600 c 3
 -480 1600 -377 1497 -377 1370 c 3
-487 1370 m 3
 -487 1436 -541 1490 -607 1490 c 3
 -673 1490 -727 1436 -727 1370 c 3
 -727 1304 -674 1250 -608 1250 c 3
 -542 1250 -487 1304 -487 1370 c 3
EndSplineSet
Validated: 1
EndChar

StartChar: aring
Encoding: 229 229 212
Width: 1258
VWidth: 0
HStem: -20 120<441.334 777.328> 900 120<441.334 777.328> 980 20G<972 1097> 1140 110<516.784 698.809> 1490 110<516.988 699.012>
VStem: 119 125<317.257 682.743> 378 110<1278.99 1461.01> 728 110<1278.99 1461.01> 972 125<0 242 319.639 680.361 758 1000>
LayerCount: 2
Fore
SplineSet
972 758 m 1xd8
 972 1000 l 1
 1097 1000 l 1xb8
 1097 0 l 1
 972 0 l 1
 972 242 l 1
 972 242 941 -20 608 -20 c 3
 257 -20 119 280 119 500 c 3
 119 720 257 1020 608 1020 c 3
 941 1020 972 758 972 758 c 1xd8
608 900 m 3xd8
 358 900 244 660 244 500 c 3
 244 340 358 100 608 100 c 3
 858 100 972 340 972 500 c 3
 972 660 858 900 608 900 c 3xd8
EndSplineSet
Refer: 206 778 N 1 0 0 1 1215 0 2
Validated: 1
Substitution2: "'ss03' Style Set 3 a.1" aring.1
EndChar

StartChar: a.1
Encoding: 57345 57345 214
Width: 1154
VWidth: 0
Flags: W
HStem: -20 120<344.059 704.705> 500 120<344.059 714.145> 900 120<349.257 703.236>
VStem: 106 125<192.126 407.874> 901 125<0 128.526 451.41 682.743>
AnchorPoint: "bottom" 537 0 basechar 0
AnchorPoint: "top" 537 1190 basechar 0
LayerCount: 2
Back
SplineSet
537 900 m 3
 287 900 173 660 173 500 c 3
 173 340 287 100 537 100 c 3
 787 100 901 340 901 500 c 3
 901 660 787 900 537 900 c 3
537 1020 m 3
 888 1020 1026 720 1026 500 c 3
 1026 280 888 -20 537 -20 c 3
 186 -20 48 280 48 500 c 3
 48 720 186 1020 537 1020 c 3
EndSplineSet
Fore
SplineSet
1026 0 m 1
 901 0 l 1
 901 47 899 91 893 133 c 1
 814 43 698 -20 537 -20 c 3
 329 -20 106 90 106 300 c 3
 106 510 329 620 537 620 c 3
 701 620 819 554 898 451 c 1
 900 468 901 484 901 500 c 3
 901 660 785 900 537 900 c 3
 464 900 365 867 277 824 c 1
 225 949 l 1
 326 995 448 1020 537 1020 c 3
 888 1020 1026 720 1026 500 c 3
 1026 432 1013 356 984 284 c 1
 1013 197 1026 99 1026 0 c 1
849 297 m 1
 792 425 689 500 537 500 c 3
 384 500 231 430 231 300 c 3
 231 170 384 100 537 100 c 3
 690 100 792 190 849 297 c 1
EndSplineSet
Validated: 1
EndChar

StartChar: esh
Encoding: 643 643 215
Width: 447
VWidth: 0
Flags: W
HStem: -591 125<-187 84.1337> 1461 125<362.866 634>
VStem: 161 125<-389.134 1384.13>
LayerCount: 2
Fore
SplineSet
161 1251 m 2
 161 1461 286 1586 496 1586 c 2
 634 1586 l 1
 634 1461 l 1
 496 1461 l 2
 391 1461 286 1402 286 1251 c 2
 286 -256 l 2
 286 -466 161 -591 -49 -591 c 2
 -187 -591 l 1
 -187 -466 l 1
 -49 -466 l 2
 56 -466 161 -407 161 -256 c 2
 161 1251 l 2
EndSplineSet
Validated: 1
EndChar

StartChar: ae
Encoding: 230 230 216
Width: 1968
VWidth: 0
Flags: W
HStem: -20 120<344.059 703.269 1222.99 1588.78> 440 120<1031 1724> 500 120<344.059 714.145> 900 120<349.257 705.261 1222.99 1542.81>
VStem: 106 125<192.126 407.874>
AnchorPoint: "center" 1035 500 basechar 0
AnchorPoint: "top" 964 1190 basechar 0
AnchorPoint: "bottom" 964 0 basechar 0
LayerCount: 2
Back
SplineSet
1031 560 m 1
 1724 560 l 1
 1710 714 1585 900 1390 900 c 3
 1170 900 1055 714 1031 560 c 1
173 500 m 3
 173 340 287 100 537 100 c 3
 787 100 901 340 901 500 c 3
 901 660 787 900 537 900 c 3
 287 900 173 660 173 500 c 3
48 500 m 3
 48 720 186 1020 537 1020 c 3
 756 1020 893 903 964 750 c 1
 1035 903 1171 1020 1390 1020 c 3
 1716 1020 1852 720 1852 500 c 3
 1852 481 1851 460 1849 440 c 1
 1031 440 l 1
 1055 286 1170 100 1390 100 c 3
 1463 100 1562 129 1660 174 c 1
 1706 48 l 1
 1595 1 1478 -20 1390 -20 c 3
 1171 -20 1035 97 964 250 c 1
 893 97 756 -20 537 -20 c 3
 186 -20 48 280 48 500 c 3
EndSplineSet
Fore
SplineSet
537 100 m 3xb8
 690 100 792 190 849 297 c 1
 792 425 689 500 537 500 c 3
 384 500 231 430 231 300 c 3
 231 170 384 100 537 100 c 3xb8
537 -20 m 3
 329 -20 106 90 106 300 c 3
 106 510 329 620 537 620 c 3
 701 620 819 554 898 451 c 1
 900 468 901 484 901 500 c 3
 901 660 787 900 537 900 c 3
 464 900 365 867 277 824 c 1
 225 949 l 1
 326 995 448 1020 537 1020 c 3
 756 1020 893 903 964 750 c 1
 1035 903 1171 1020 1390 1020 c 3
 1716 1020 1852 720 1852 500 c 3xb8
 1852 481 1851 460 1849 440 c 1
 1031 440 l 1xd8
 1055 286 1170 100 1390 100 c 3
 1463 100 1562 129 1660 174 c 1
 1706 48 l 1
 1595 1 1478 -20 1390 -20 c 3
 1171 -20 1035 97 964 250 c 1
 893 97 756 -20 537 -20 c 3
1031 560 m 1xd8
 1724 560 l 1
 1710 714 1585 900 1390 900 c 3
 1170 900 1055 714 1031 560 c 1xd8
EndSplineSet
Validated: 1
EndChar

StartChar: AE
Encoding: 198 198 217
Width: 1589
VWidth: 0
Flags: W
HStem: 5 120<861 1475> 760 120<507 736 861 1469> 1441 120<861 1475>
VStem: 736 125<125 760 880 1441>
AnchorPoint: "top" 799 1706 basechar 0
LayerCount: 2
Fore
SplineSet
1475 1561 m 1
 1475 1441 l 1
 861 1441 l 1
 861 880 l 1
 1469 880 l 1
 1469 760 l 1
 861 760 l 1
 861 125 l 1
 1475 125 l 1
 1475 5 l 1
 736 5 l 1
 736 760 l 1
 458 760 l 1
 149 -2 l 1
 14 -2 l 1
 661 1561 l 1
 1475 1561 l 1
736 880 m 1
 736 1442 l 1
 507 880 l 1
 736 880 l 1
EndSplineSet
Validated: 1
EndChar

StartChar: eth
Encoding: 240 240 218
Width: 1216
VWidth: 0
Flags: W
HStem: -20 120<441.334 774.666> 900 120<441.334 778.525> 1546 20G<506 655.624>
VStem: 119 125<317.257 682.743> 972 125<317.257 683.063>
AnchorPoint: "top" 608 1706 basechar 0
AnchorPoint: "bottom" 608 0 basechar 0
LayerCount: 2
Back
SplineSet
608 900 m 3
 358 900 244 660 244 500 c 3
 244 340 358 100 608 100 c 3
 858 100 972 340 972 500 c 3
 972 660 858 900 608 900 c 3
608 1020 m 3
 959 1020 1097 720 1097 500 c 3
 1097 280 959 -20 608 -20 c 3
 257 -20 119 280 119 500 c 3
 119 720 257 1020 608 1020 c 3
EndSplineSet
Fore
SplineSet
972 500 m 3
 972 660 858 900 608 900 c 3
 358 900 244 660 244 500 c 3
 244 340 358 100 608 100 c 3
 858 100 972 340 972 500 c 3
238 1315 m 1
 586 1402 l 1
 506 1566 l 1
 646 1566 l 1
 710 1433 l 1
 932 1489 l 1
 978 1378 l 1
 763 1324 l 1
 1036 759 l 2
 1075 679 1097 591 1097 500 c 3
 1097 280 959 -20 608 -20 c 3
 257 -20 119 280 119 500 c 3
 119 720 257 1020 608 1020 c 3
 677 1020 729 1009 793 976 c 1
 639 1293 l 1
 284 1204 l 1
 238 1315 l 1
EndSplineSet
Validated: 1
EndChar

StartChar: multiply
Encoding: 215 215 219
Width: 960
VWidth: 0
Flags: W
HStem: 362 596
VStem: 182 595
LayerCount: 2
Fore
SplineSet
566 660 m 1
 777 449 l 1
 691 362 l 1
 480 574 l 1
 269 362 l 1
 182 449 l 1
 394 660 l 1
 182 871 l 1
 269 958 l 1
 480 746 l 1
 691 958 l 1
 777 871 l 1
 566 660 l 1
EndSplineSet
Validated: 1
EndChar

StartChar: divide
Encoding: 247 247 220
Width: 960
VWidth: 0
Flags: W
HStem: 280 192<398.881 561.119> 600 120<120 840> 848 192<398.881 561.119>
VStem: 384 192<294.881 457.119 862.881 1025.12>
CounterMasks: 1 e0
LayerCount: 2
Fore
SplineSet
384 376 m 3
 384 430 426 472 480 472 c 3
 534 472 576 430 576 376 c 3
 576 322 534 280 480 280 c 3
 426 280 384 322 384 376 c 3
384 944 m 3
 384 998 426 1040 480 1040 c 3
 534 1040 576 998 576 944 c 3
 576 890 534 848 480 848 c 3
 426 848 384 890 384 944 c 3
120 720 m 1
 840 720 l 1
 840 600 l 1
 120 600 l 1
 120 720 l 1
EndSplineSet
Validated: 1
EndChar

StartChar: logicalnot
Encoding: 172 172 221
Width: 960
VWidth: 0
Flags: W
HStem: 480 240<705 830> 600 120<110 705>
VStem: 705 125<480 600>
LayerCount: 2
Fore
SplineSet
110 720 m 1x60
 830 720 l 1
 830 480 l 1
 705 480 l 1xa0
 705 600 l 1
 110 600 l 1
 110 720 l 1x60
EndSplineSet
Validated: 1
EndChar

StartChar: Schwa
Encoding: 399 399 222
Width: 1704
VWidth: 0
Flags: W
HStem: -20 120<590.421 1024.7> 663 120<234 1450> 1466 120<570.842 1027.06>
VStem: 103 131<487.333 663> 1450 135<524.481 663 783 1041.52>
AnchorPoint: "top" 792 1706 basechar 0
AnchorPoint: "center" 792 783 basechar 0
AnchorPoint: "bottom" 792 0 basechar 0
LayerCount: 2
Fore
SplineSet
103 783 m 1
 1460 783 l 1
 1460 1156 1165 1466 792 1466 c 3
 687 1466 588 1434 500 1391 c 1
 448 1516 l 1
 549 1562 671 1586 792 1586 c 3
 1238 1586 1585 1229 1585 783 c 3
 1585 337 1238 -20 802 -20 c 3
 442 -20 103 241 103 783 c 1
1450 663 m 1
 234 663 l 1
 250 300 540 100 802 100 c 3
 1125 100 1395 346 1450 663 c 1
EndSplineSet
Validated: 1
EndChar

StartChar: cent
Encoding: 162 162 223
Width: 1280
VWidth: 0
Flags: W
HStem: -17 122<568.979 682 802 947.882> 895 122<568.979 682 802 942.237>
VStem: 253 125<313.807 686.193> 682 120<-72 -13.289 105 894 1013.29 1072>
AnchorPoint: "bottom" 742 0 basechar 0
AnchorPoint: "top" 742 1190 basechar 0
AnchorPoint: "center" 742 500 basechar 0
LayerCount: 2
Fore
SplineSet
802 894 m 1
 802 105 l 1
 865 115 936 140 1002 174 c 1
 1048 48 l 1
 969 11 879 -10 802 -17 c 1
 802 -72 l 1
 682 -72 l 1
 682 -17 l 1
 375 15 253 293 253 500 c 0
 253 707 375 985 682 1017 c 1
 682 1072 l 1
 802 1072 l 1
 802 1017 l 1
 881 1009 974 985 1054 949 c 1
 1002 824 l 1
 936 856 865 883 802 894 c 1
682 895 m 1
 474 860 378 647 378 500 c 0
 378 353 474 140 682 105 c 1
 682 895 l 1
EndSplineSet
Validated: 1
EndChar

StartChar: guillemotleft
Encoding: 171 171 224
Width: 640
VWidth: 0
Flags: W
HStem: 980 20G<340 360>
LayerCount: 2
Fore
SplineSet
420 560 m 1
 700 280 l 1
 700 120 l 1
 260 560 l 1
 700 1000 l 1
 700 840 l 1
 420 560 l 1
80 560 m 1
 360 280 l 1
 360 120 l 1
 -80 560 l 1
 360 1000 l 1
 360 840 l 1
 80 560 l 1
EndSplineSet
Validated: 1
EndChar

StartChar: guillemotright
Encoding: 187 187 225
Width: 640
VWidth: 0
Flags: W
HStem: 980 20G<-60 -40 280 300>
LayerCount: 2
Fore
SplineSet
220 560 m 1
 -60 840 l 1
 -60 1000 l 1
 380 560 l 1
 -60 120 l 1
 -60 280 l 1
 220 560 l 1
560 560 m 1
 280 840 l 1
 280 1000 l 1
 720 560 l 1
 280 120 l 1
 280 280 l 1
 560 560 l 1
EndSplineSet
Validated: 1
EndChar

StartChar: guilsinglleft
Encoding: 8249 8249 226
Width: 640
VWidth: 0
Flags: W
VStem: 90 440
LayerCount: 2
Fore
SplineSet
250 560 m 1
 530 280 l 1
 530 120 l 1
 90 560 l 1
 530 1000 l 1
 530 840 l 1
 250 560 l 1
EndSplineSet
Validated: 1
EndChar

StartChar: guilsinglright
Encoding: 8250 8250 227
Width: 640
VWidth: 0
Flags: W
HStem: 980 20G<110 130>
VStem: 110 440
LayerCount: 2
Fore
SplineSet
390 560 m 1
 110 840 l 1
 110 1000 l 1
 550 560 l 1
 110 120 l 1
 110 280 l 1
 390 560 l 1
EndSplineSet
Validated: 1
EndChar

StartChar: two.sup
Encoding: 178 178 228
Width: 864
VWidth: 0
HStem: 897 91<190 771> 1871 91<170.572 519.89>
VStem: 610 94<1507.17 1786.47>
LayerCount: 2
Fore
SplineSet
190 988 m 1
 771 988 l 1
 771 897 l 1
 93 897 l 1
 93 986 l 1
 352 1380 610 1403 610 1671 c 3
 610 1763 536 1871 347 1871 c 3
 302 1871 205 1841 173 1822 c 1
NamedP: "868, 174"
 143 1910 l 1
 264 1962 307 1962 351 1962 c 3
 586 1962 704 1813 704 1680 c 3
 704 1362 428 1347 190 988 c 1
EndSplineSet
Validated: 1
EndChar

StartChar: three.sup
Encoding: 179 179 229
Width: 864
VWidth: 0
Flags: W
HStem: 881 91<111.932 567.492> 1001 20G<104.954 143.5> 1401 91<342 530.706> 1871 91<158.929 522.01>
VStem: 614 94<1570.59 1786.88> 690 94<1076.83 1296.82>
LayerCount: 2
Fore
SplineSet
532 1454 m 5xf8
 713 1407 784 1282 784 1184 c 7
 784 1049 660 881 347 881 c 7
 262 881 149 899 78 934 c 5
 113 1021 l 5
 174 993 271 972 344 972 c 7
 603 972 690 1095 690 1186 c 7xf4
 690 1277 604 1401 342 1401 c 5
 342 1492 l 5
 530 1492 614 1584 614 1675 c 7
 614 1766 537 1871 342 1871 c 7
 295 1871 196 1842 163 1823 c 5
NamedP: "868, 174"
 131 1910 l 5
 255 1962 300 1962 345 1962 c 7
 586 1962 708 1812 708 1678 c 7
 708 1592 655 1492 532 1454 c 5xf8
EndSplineSet
Validated: 1
EndChar

StartChar: one.sup
Encoding: 185 185 230
Width: 864
VWidth: 0
HStem: 903 90<94 407 501 771>
VStem: 407 94<993 1845>
LayerCount: 2
Fore
SplineSet
501 993 m 1
 771 993 l 1
 771 903 l 1
 94 903 l 1
 94 993 l 1
 407 993 l 1
 407 1845 l 1
 101 1649 l 1
 101 1741 l 1
 416 1944 l 1
 501 1944 l 1
 501 993 l 1
EndSplineSet
Validated: 1
EndChar

StartChar: r.sc
Encoding: 640 640 231
Width: 949
VWidth: 0
Flags: W
HStem: 405 121<286 465.205> 880 120<286 629.455>
VStem: 161 125<0 405 526 880> 730 125<606.837 799.361>
LayerCount: 2
Fore
SplineSet
413 526 m 2
 651 526 730 624 730 703 c 3
 730 782 651 880 413 880 c 2
 286 880 l 1
 286 526 l 1
 413 526 l 2
286 405 m 1
 286 0 l 1
 161 0 l 1
 161 1000 l 1
 399 1000 l 2
 726 1000 855 843 855 708 c 3
 855 603 775 486 581 438 c 1
 897 0 l 1
 762 0 l 1
 466 410 l 1
 449 407 434 405 413 405 c 2
 286 405 l 1
EndSplineSet
Validated: 1
EndChar

StartChar: registered
Encoding: 174 174 232
Width: 1824
VWidth: 0
Flags: W
HStem: -20 120<676.944 1147.06> 687 121<691 870.205> 1162 120<691 1034.45> 1466 120<676.944 1147.06>
VStem: 119 125<546.563 1019.44> 566 125<282 687 808 1162> 1135 125<888.837 1081.36> 1580 125<546.563 1019.44>
AnchorPoint: "center" 912 783.043 basechar 0
LayerCount: 2
Back
SplineSet
1172 1107 m 1
 1084 1150 985 1183 912 1183 c 3
 662 1183 548 943 548 783 c 3
 548 623 662 383 912 383 c 3
 985 383 1084 412 1172 457 c 1
NamedP: "868, 174"
 1218 331 l 1
 1117 284 1000 263 912 263 c 3
 561 263 423 563 423 783 c 3
 423 1003 561 1303 912 1303 c 3
 1001 1303 1123 1278 1224 1232 c 1
 1172 1107 l 1
EndSplineSet
Fore
SplineSet
818 808 m 2
 1056 808 1135 906 1135 985 c 3
 1135 1064 1056 1162 818 1162 c 2
 691 1162 l 1
 691 808 l 1
 818 808 l 2
691 687 m 1
 691 282 l 1
 566 282 l 1
 566 1282 l 1
 804 1282 l 2
 1131 1282 1260 1125 1260 990 c 3
 1260 885 1180 768 986 720 c 1
 1302 282 l 1
 1167 282 l 1
 871 692 l 1
 854 689 839 687 818 687 c 2
 691 687 l 1
119 783 m 3
 119 1229 466 1586 912 1586 c 3
 1358 1586 1705 1229 1705 783 c 3
 1705 337 1358 -20 912 -20 c 3
 466 -20 119 337 119 783 c 3
912 1466 m 3
 539 1466 244 1156 244 783 c 3
 244 410 539 100 912 100 c 3
 1285 100 1580 410 1580 783 c 3
 1580 1156 1285 1466 912 1466 c 3
EndSplineSet
Validated: 1
EndChar

StartChar: germandbls
Encoding: 223 223 233
Width: 1236
VWidth: 0
Flags: W
HStem: 0 120<496 764.985> 760 120<496 718.702> 1466 120<361.012 711.963>
VStem: 161 125<0 1391.94> 891 125<1025.96 1306.11> 992 125<295.91 581.126>
LayerCount: 2
Fore
SplineSet
496 1466 m 3xf8
 391 1466 286 1402 286 1251 c 2
 286 0 l 1
 161 0 l 1
 161 1251 l 2
 161 1461 286 1586 496 1586 c 3
 842 1586 1016 1363 1016 1163 c 0xf8
 1016 1035 943 887 773 830 c 1
 1021 761 1117 584 1117 439 c 3
 1117 239 942 0 496 0 c 1
 496 120 l 1
 868 120 992 299 992 439 c 3xf4
 992 579 869 760 496 760 c 1
 496 880 l 1
 769 880 891 1023 891 1163 c 0
 891 1303 779 1466 496 1466 c 3xf8
EndSplineSet
Validated: 1
EndChar

StartChar: tt
Encoding: 57513 57513 234
Width: 1576
VWidth: 0
Flags: W
HStem: 0 125<412.866 684 1200.87 1472> 880 120<58 211 336 999 1124 1472>
VStem: 211 125<201.866 880 1000 1226> 999 125<201.866 880 1000 1226>
LayerCount: 2
Fore
SplineSet
336 880 m 1
 336 335 l 2
 336 184 441 125 546 125 c 2
 684 125 l 1
 684 0 l 1
 546 0 l 2
 336 0 211 125 211 335 c 2
 211 880 l 1
 58 880 l 1
 58 1000 l 1
 211 1000 l 1
 211 1226 l 1
 336 1278 l 1
 336 1000 l 1
 999 1000 l 1
 999 1226 l 1
 1124 1278 l 1
 1124 1000 l 1
 1472 1000 l 1
 1472 880 l 1
 1124 880 l 1
 1124 335 l 2
 1124 184 1229 125 1334 125 c 2
 1472 125 l 1
 1472 0 l 1
 1334 0 l 2
 1124 0 999 125 999 335 c 2
 999 880 l 1
 336 880 l 1
EndSplineSet
Validated: 1
Ligature2: "'dlig' Discretionary Ligatures" t t
EndChar

StartChar: fff
Encoding: 57439 57439 235
Width: 2364
VWidth: 0
Flags: W
HStem: 880 120<58 211 336 999 1124 1787 1912 2260> 1461 125<412.866 684 1200.87 1472 1988.87 2260>
VStem: 211 125<0 880 1000 1384.13> 999 125<0 880 1000 1384.13> 1787 125<0 880 1000 1384.13>
CounterMasks: 1 38
LayerCount: 2
Fore
SplineSet
1124 880 m 1
 1124 0 l 1
 999 0 l 1
 999 880 l 1
 336 880 l 1
 336 0 l 1
 211 0 l 1
 211 880 l 1
 58 880 l 1
 58 1000 l 1
 211 1000 l 1
 211 1251 l 2
 211 1461 336 1586 546 1586 c 2
 684 1586 l 1
 684 1461 l 1
 546 1461 l 2
 441 1461 336 1402 336 1251 c 2
 336 1000 l 1
 999 1000 l 1
 999 1251 l 2
 999 1461 1124 1586 1334 1586 c 2
 1472 1586 l 1
 1472 1461 l 1
 1334 1461 l 2
 1229 1461 1124 1402 1124 1251 c 2
 1124 1000 l 1
 1787 1000 l 1
 1787 1251 l 2
 1787 1461 1912 1586 2122 1586 c 2
 2260 1586 l 1
 2260 1461 l 1
 2122 1461 l 2
 2017 1461 1912 1402 1912 1251 c 2
 1912 1000 l 1
 2260 1000 l 1
 2260 880 l 1
 1912 880 l 1
 1912 0 l 1
 1787 0 l 1
 1787 880 l 1
 1124 880 l 1
EndSplineSet
Validated: 513
LCarets2: 2 0 0
Ligature2: "'dlig' Discretionary Ligatures" f f f
Substitution2: "'ss06' Style Set 6 f.hook" florinflorinflorin
EndChar

StartChar: florinflorin
Encoding: 57679 57679 236
Width: 1576
VWidth: 0
Flags: W
HStem: -591 125<-137 134.134 651 922.134> 880 120<58 211 336 999 1124 1472> 1461 125<412.866 684 1200.87 1472>
VStem: 211 125<-389.134 880 1000 1384.13> 999 125<-389.134 880 1000 1384.13>
LayerCount: 2
Fore
SplineSet
336 880 m 1
 336 -256 l 2
 336 -466 211 -591 1 -591 c 2
 -137 -591 l 1
 -137 -466 l 1
 1 -466 l 2
 106 -466 211 -407 211 -256 c 2
 211 880 l 1
 58 880 l 1
 58 1000 l 1
 211 1000 l 1
 211 1251 l 2
 211 1461 336 1586 546 1586 c 2
 684 1586 l 1
 684 1461 l 1
 546 1461 l 2
 441 1461 336 1402 336 1251 c 2
 336 1000 l 1
 999 1000 l 1
 999 1251 l 2
 999 1461 1124 1586 1334 1586 c 2
 1472 1586 l 1
 1472 1461 l 1
 1334 1461 l 2
 1229 1461 1124 1402 1124 1251 c 2
 1124 1000 l 1
 1472 1000 l 1
 1472 880 l 1
 1124 880 l 1
 1124 -256 l 2
 1124 -466 999 -591 789 -591 c 2
 651 -591 l 1
 651 -466 l 1
 789 -466 l 2
 894 -466 999 -407 999 -256 c 2
 999 880 l 1
 336 880 l 1
EndSplineSet
Validated: 1
EndChar

StartChar: florinflorinflorin
Encoding: 57695 57695 237
Width: 2364
VWidth: 0
Flags: W
HStem: -591 125<-137 134.134 651 922.134 1439 1710.13> 880 120<58 211 336 999 1124 1787 1912 2260> 1461 125<412.866 684 1200.87 1472 1988.87 2260>
VStem: 211 125<-389.134 880 1000 1384.13> 999 125<-389.134 880 1000 1384.13> 1787 125<-389.134 880 1000 1384.13>
CounterMasks: 1 1c
LayerCount: 2
Back
SplineSet
1124 880 m 1
 1124 0 l 1
 999 0 l 1
 999 880 l 1
 336 880 l 1
 336 0 l 1
 211 0 l 1
 211 880 l 1
 58 880 l 1
 58 1000 l 1
 211 1000 l 1
 211 1251 l 2
 211 1461 336 1586 546 1586 c 2
 684 1586 l 1
 684 1461 l 1
 546 1461 l 2
 441 1461 336 1402 336 1251 c 2
 336 1000 l 1
 999 1000 l 1
 999 1251 l 2
 999 1461 1124 1586 1334 1586 c 2
 1472 1586 l 1
 1472 1461 l 1
 1334 1461 l 2
 1229 1461 1124 1402 1124 1251 c 2
 1124 1000 l 1
 1787 1000 l 1
 1787 1251 l 2
 1787 1461 1912 1586 2122 1586 c 2
 2260 1586 l 1
 2260 1461 l 1
 2122 1461 l 2
 2017 1461 1912 1402 1912 1251 c 2
 1912 1000 l 1
 2260 1000 l 1
 2260 880 l 1
 1912 880 l 1
 1912 0 l 1
 1787 0 l 1
 1787 880 l 1
 1124 880 l 1
EndSplineSet
Fore
SplineSet
1124 880 m 1
 1124 -256 l 2
 1124 -466 999 -591 789 -591 c 2
 651 -591 l 1
 651 -466 l 1
 789 -466 l 2
 894 -466 999 -407 999 -256 c 2
 999 880 l 1
 336 880 l 1
 336 -256 l 2
 336 -466 211 -591 1 -591 c 2
 -137 -591 l 1
 -137 -466 l 1
 1 -466 l 2
 106 -466 211 -407 211 -256 c 2
 211 880 l 1
 58 880 l 1
 58 1000 l 1
 211 1000 l 1
 211 1251 l 2
 211 1461 336 1586 546 1586 c 2
 684 1586 l 1
 684 1461 l 1
 546 1461 l 2
 441 1461 336 1402 336 1251 c 2
 336 1000 l 1
 999 1000 l 1
 999 1251 l 2
 999 1461 1124 1586 1334 1586 c 2
 1472 1586 l 1
 1472 1461 l 1
 1334 1461 l 2
 1229 1461 1124 1402 1124 1251 c 2
 1124 1000 l 1
 1787 1000 l 1
 1787 1251 l 2
 1787 1461 1912 1586 2122 1586 c 2
 2260 1586 l 1
 2260 1461 l 1
 2122 1461 l 2
 2017 1461 1912 1402 1912 1251 c 2
 1912 1000 l 1
 2260 1000 l 1
 2260 880 l 1
 1912 880 l 1
 1912 -256 l 2
 1912 -466 1787 -591 1577 -591 c 2
 1439 -591 l 1
 1439 -466 l 1
 1577 -466 l 2
 1682 -466 1787 -407 1787 -256 c 2
 1787 880 l 1
 1124 880 l 1
EndSplineSet
Validated: 1
EndChar

StartChar: aacute.1
Encoding: 57347 57347 238
Width: 1154
VWidth: 0
Flags: W
HStem: -20 120<344.059 704.705> 500 120<344.059 714.145> 900 120<349.257 703.236> 1190 300
VStem: 106 125<192.126 407.874> 357 470 901 125<0 128.526 451.41 682.743>
AnchorPoint: "top" 537 1190 basechar 0
AnchorPoint: "bottom" 537 0 basechar 0
LayerCount: 2
Fore
SplineSet
537 -20 m 1027,54,-1
EndSplineSet
Refer: 115 769 N 1 0 0 1 1145 0 2
Refer: 214 57345 N 1 0 0 1 0 0 2
Validated: 1
EndChar

StartChar: acircumflex.1
Encoding: 57348 57348 239
Width: 1154
VWidth: 0
Flags: W
HStem: -20 120<344.059 704.705> 500 120<344.059 714.145> 900 120<349.257 703.236> 1190 300
VStem: 106 125<192.126 407.874> 901 125<0 128.526 451.41 682.743>
AnchorPoint: "top" 537 1190 basechar 0
AnchorPoint: "bottom" 537 0 basechar 0
LayerCount: 2
Fore
SplineSet
537 -20 m 1027,57,-1
EndSplineSet
Refer: 122 770 N 1 0 0 1 1145 0 2
Refer: 214 57345 N 1 0 0 1 0 0 2
Validated: 1
EndChar

StartChar: agrave.1
Encoding: 57346 57346 240
Width: 1154
VWidth: 0
Flags: W
HStem: -20 120<344.059 704.705> 500 120<344.059 714.145> 900 120<349.257 703.236> 1190 300
VStem: 106 125<192.126 407.874> 247 470 901 125<0 128.526 451.41 682.743>
AnchorPoint: "top" 537 1190 basechar 0
AnchorPoint: "bottom" 537 0 basechar 0
LayerCount: 2
Fore
SplineSet
537 -20 m 1027,54,-1
EndSplineSet
Refer: 106 768 N 1 0 0 1 1145 0 2
Refer: 214 57345 N 1 0 0 1 0 0 2
Validated: 1
EndChar

StartChar: l.1
Encoding: 57366 57366 241
Width: 447
VWidth: 0
Flags: W
HStem: 1618 20G<237.923 286>
VStem: 161 125<0 1586>
AnchorPoint: "bottom" 223 0 basechar 0
LayerCount: 2
Fore
SplineSet
161 0 m 9
 161 1586 l 1
 286 1638 l 1
 286 0 l 17
 161 0 l 9
EndSplineSet
Validated: 1
EndChar

StartChar: atilde.1
Encoding: 57349 57349 242
Width: 1154
VWidth: 0
Flags: W
HStem: -20 120<344.059 704.705> 500 120<344.059 714.145> 900 120<349.257 703.236> 1136 120<603.37 827.642> 1296 120<246.358 470.63>
VStem: 106 125<192.126 407.874> 901 125<0 128.526 451.41 682.743>
AnchorPoint: "top" 537 1190 basechar 0
AnchorPoint: "bottom" 537 0 basechar 0
LayerCount: 2
Fore
SplineSet
537 -20 m 1027,70,-1
EndSplineSet
Refer: 139 771 N 1 0 0 1 1145 0 2
Refer: 214 57345 N 1 0 0 1 0 0 2
Validated: 1
EndChar

StartChar: adieresis.1
Encoding: 57350 57350 243
Width: 1154
VWidth: 0
Flags: W
HStem: -20 120<344.059 704.705> 500 120<344.059 714.145> 900 120<349.257 703.236> 1190 172<273.102 412.701 663.102 802.701>
VStem: 106 125<192.126 407.874> 262 161<1201.17 1352.45> 652 161<1201.17 1352.45> 901 125<0 128.526 451.41 682.743>
AnchorPoint: "top" 537 1190 basechar 0
AnchorPoint: "bottom" 537 0 basechar 0
LayerCount: 2
Fore
SplineSet
537 -20 m 1027,74,-1
EndSplineSet
Refer: 131 776 N 1 0 0 1 1143 0 2
Refer: 214 57345 N 1 0 0 1 0 0 2
Validated: 1
EndChar

StartChar: aring.1
Encoding: 57351 57351 244
Width: 1154
VWidth: 0
Flags: W
HStem: -20 120<344.059 704.705> 500 120<344.059 714.145> 900 120<349.257 703.236> 1140 110<445.784 627.809> 1490 110<445.988 628.012>
VStem: 106 125<192.126 407.874> 307 110<1278.99 1461.01> 657 110<1278.99 1461.01> 901 125<0 128.526 451.41 682.743>
AnchorPoint: "top" 537 1190 basechar 0
AnchorPoint: "bottom" 537 0 basechar 0
LayerCount: 2
Fore
SplineSet
537 -20 m 1027,74,-1
EndSplineSet
Refer: 206 778 N 1 0 0 1 1144 0 2
Refer: 214 57345 N 1 0 0 1 0 0 2
Validated: 1
EndChar

StartChar: t.1
Encoding: 57372 57372 245
Width: 738
VWidth: 0
Flags: W
HStem: 880 120<58 211 336 684>
VStem: 211 125<0 880 1000 1226>
AnchorPoint: "bottom" 274 0 basechar 0
LayerCount: 2
Fore
SplineSet
211 0 m 9
 211 880 l 1
 58 880 l 1
 58 1000 l 1
 211 1000 l 1
 211 1226 l 1
 336 1278 l 1
 336 1000 l 1
 684 1000 l 1
 684 880 l 1
 336 880 l 1
 336 0 l 17
 211 0 l 9
EndSplineSet
Validated: 1
EndChar

StartChar: ttt
Encoding: 57517 57517 246
Width: 2364
VWidth: 0
Flags: W
HStem: 0 125<412.866 684 1200.87 1472 1988.87 2260> 880 120<58 211 336 999 1124 1787 1912 2260>
VStem: 211 125<201.866 880 1000 1226> 999 125<201.866 880 1000 1226> 1787 125<201.866 880 1000 1226>
CounterMasks: 1 38
LayerCount: 2
Fore
SplineSet
1124 880 m 1
 1124 335 l 2
 1124 184 1229 125 1334 125 c 2
 1472 125 l 1
 1472 0 l 1
 1334 0 l 2
 1124 0 999 125 999 335 c 2
 999 880 l 1
 336 880 l 1
 336 335 l 2
 336 184 441 125 546 125 c 2
 684 125 l 1
 684 0 l 1
 546 0 l 2
 336 0 211 125 211 335 c 2
 211 880 l 1
 58 880 l 1
 58 1000 l 1
 211 1000 l 1
 211 1226 l 1
 336 1278 l 1
 336 1000 l 1
 999 1000 l 1
 999 1226 l 1
 1124 1278 l 1
 1124 1000 l 1
 1787 1000 l 1
 1787 1226 l 1
 1912 1278 l 1
 1912 1000 l 1
 2260 1000 l 1
 2260 880 l 1
 1912 880 l 1
 1912 335 l 2
 1912 184 2017 125 2122 125 c 2
 2260 125 l 1
 2260 0 l 1
 2122 0 l 2
 1912 0 1787 125 1787 335 c 2
 1787 880 l 1
 1124 880 l 1
EndSplineSet
Validated: 1
Ligature2: "'dlig' Discretionary Ligatures" t t t
EndChar

StartChar: slongi
Encoding: 57440 57440 247
Width: 894
VWidth: 0
Flags: W
HStem: 980 20G<608 733> 1466 120<356.666 636.573>
VStem: 161 125<0 1391.94> 608 125<0 1000>
LayerCount: 2
Fore
SplineSet
733 1000 m 1
 733 0 l 1
 608 0 l 1
 608 1000 l 1
 733 1000 l 1
161 0 m 1
 161 1251 l 2
 161 1461 311 1586 476 1586 c 3
 624 1586 733 1505 733 1505 c 1
 685 1390 l 1
 685 1390 597 1466 476 1466 c 3
 391 1466 286 1402 286 1251 c 2
 286 0 l 1
 161 0 l 1
EndSplineSet
Validated: 1
EndChar

StartChar: j.1
Encoding: 57378 57378 248
Width: 447
VWidth: 0
Flags: W
HStem: 980 20G<161 286> 1190 172<154.102 293.701>
VStem: 143 161<1201.17 1352.45> 161 125<-591 1000>
AnchorPoint: "bottom" 223 -591 basechar 0
LayerCount: 2
Fore
SplineSet
143 1276 m 3xe0
 143 1330 186 1362 223 1362 c 3
 260 1362 304 1332 304 1276 c 3
 304 1223 260 1190 223 1190 c 3
 186 1190 143 1228 143 1276 c 3xe0
161 -591 m 9xd0
 161 1000 l 1
 286 1000 l 1
 286 -591 l 17
 161 -591 l 9xd0
EndSplineSet
Validated: 1
EndChar

StartChar: four.sup
Encoding: 8308 8308 249
Width: 864
VWidth: 0
HStem: 1169 91<188 543 637 784>
VStem: 543 94<898 1169 1260 1795>
LayerCount: 2
Fore
SplineSet
784 1260 m 1
 784 1169 l 1
 637 1169 l 1
 636 898 l 1
 542 898 l 1
 543 1169 l 1
 88 1169 l 1
 88 1258 l 1
 544 1944 l 1
 638 1944 l 1
 637 1260 l 1
 784 1260 l 1
188 1260 m 1
 543 1260 l 1
 544 1795 l 1
 188 1260 l 1
EndSplineSet
Validated: 1
EndChar

StartChar: yen
Encoding: 165 165 250
Width: 1280
VWidth: 0
Flags: W
HStem: -2 21G<578 703> 617 120<280 578 703 1000> 1546 20G<0 161.667 1118.33 1280>
VStem: 578 125<-2 617>
LayerCount: 2
Fore
SplineSet
0 1566 m 1
 148 1566 l 1
 640 846 l 1
 1132 1566 l 1
 1280 1566 l 1
 703 737 l 1
 1000 737 l 1
 1000 617 l 1
 703 617 l 1
 703 -2 l 1
 578 -2 l 1
 578 617 l 1
 280 617 l 1
 280 737 l 1
 578 737 l 1
 0 1566 l 1
EndSplineSet
Validated: 1
EndChar

StartChar: brokenbar
Encoding: 166 166 251
Width: 640
VWidth: 0
Flags: W
HStem: 1618 20G<260 380>
VStem: 260 120<-72 623 933 1638>
LayerCount: 2
Fore
SplineSet
260 933 m 1
 260 1638 l 1
 380 1638 l 1
 380 933 l 1
 260 933 l 1
380 623 m 1
 380 -72 l 1
 260 -72 l 1
 260 623 l 1
 380 623 l 1
EndSplineSet
Validated: 1
EndChar

StartChar: section
Encoding: 167 167 252
Width: 960
VWidth: 0
Flags: W
HStem: 34 124<262.257 665.185> 1408 124<294.405 657.743>
VStem: 107 125<719.863 900.611 1170.34 1352.13> 728 125<217.097 409.771 666.31 859.866>
LayerCount: 2
Fore
SplineSet
695 538 m 1
 815 478 853 399 853 293 c 3
 853 100 651 34 450 34 c 3
 361 34 239 63 138 109 c 1
 190 234 l 1
 278 191 377 158 450 158 c 3
 590 158 728 201 728 293 c 3
 728 386 677 459 470 508 c 0
 187 575 107 700 107 823 c 3
 107 915 168 991 285 1036 c 1
 145 1103 107 1189 107 1273 c 0
 107 1425 271 1532 470 1532 c 3
 559 1532 681 1503 782 1457 c 1
 730 1332 l 1
 642 1375 543 1408 470 1408 c 3
 331 1408 232 1347 232 1273 c 0
 232 1230 237 1139 470 1083 c 0
 752 1015 853 916 853 743 c 3
 853 644 799 578 695 538 c 1
470 958 m 1
 331 958 232 897 232 823 c 3
 232 780 237 689 470 633 c 0
 495 627 518 621 540 614 c 1
 644 629 728 671 728 743 c 3
 728 836 677 909 470 958 c 1
EndSplineSet
Validated: 1
EndChar

StartChar: paragraph
Encoding: 182 182 253
Width: 1190
VWidth: 0
Flags: W
HStem: -2 21G<704 829 904 1029> 1446 120<829 904>
VStem: 83 746<962.337 1303.66> 704 125<-2 700> 904 125<-2 1446>
LayerCount: 2
Fore
SplineSet
704 700 m 1xd8
 258 700 83 933 83 1133 c 3xe8
 83 1333 258 1566 704 1566 c 2
 704 1566 921 1566 1029 1566 c 1
 1029 -2 l 1
 904 -2 l 1
 904 1446 l 1
 829 1446 l 1
 829 -2 l 1
 704 -2 l 1
 704 700 l 1xd8
EndSplineSet
Validated: 1
EndChar

StartChar: s.sc
Encoding: 42801 42801 254
Width: 958
VWidth: 0
Flags: W
HStem: -24 124<261.257 664.185> 900 124<293.405 656.743>
VStem: 106 125<661.863 844.126> 727 125<159.097 351.866>
AnchorPoint: "bottom" 459 0 basechar 0
AnchorPoint: "top" 459 1190 basechar 0
LayerCount: 2
Back
SplineSet
469 575 m 0
 751 507 852 408 852 235 c 3
 852 42 650 -24 449 -24 c 3
 360 -24 238 5 137 51 c 1
 189 176 l 1
 277 133 376 100 449 100 c 3
 589 100 727 143 727 235 c 3
 727 328 676 401 469 450 c 0
 186 517 106 642 106 765 c 3
 106 917 270 1024 469 1024 c 3
 558 1024 680 995 781 949 c 1
 729 824 l 1
 641 867 542 900 469 900 c 3
 330 900 231 839 231 765 c 3
 231 722 236 631 469 575 c 0
EndSplineSet
Fore
SplineSet
469 575 m 0
 751 507 852 408 852 235 c 3
 852 42 650 -24 449 -24 c 3
 360 -24 238 5 137 51 c 1
 189 176 l 1
 277 133 376 100 449 100 c 3
 589 100 727 143 727 235 c 3
 727 328 676 401 469 450 c 0
 186 517 106 642 106 765 c 3
 106 917 270 1024 469 1024 c 3
 558 1024 680 995 781 949 c 1
 729 824 l 1
 641 867 542 900 469 900 c 3
 330 900 231 839 231 765 c 3
 231 722 236 631 469 575 c 0
EndSplineSet
Validated: 1
EndChar

StartChar: a.sup
Encoding: 7491 7491 255
Width: 859
VWidth: 0
HStem: 885 90<281.923 551.213> 1492 90<281.923 551.213> 1547 20G<658 752>
VStem: 79 94<1086.9 1380.78> 658 94<900 1067 1085.88 1381.71 1400 1567>
AnchorPoint: "top" 416 1695 basechar 0
LayerCount: 2
Fore
SplineSet
658 1400 m 1xd8
 658 1567 l 1
 752 1567 l 1xb8
 752 900 l 1
 658 900 l 1
 658 1067 l 1
 658 1067 637 885 411 885 c 3
 173 885 79 1087 79 1234 c 3
 79 1381 173 1582 411 1582 c 3
 637 1582 658 1400 658 1400 c 1xd8
416 1492 m 3xd8
 249 1492 173 1337 173 1234 c 3
 173 1131 249 975 416 975 c 3
 583 975 658 1131 658 1234 c 3
 658 1337 583 1492 416 1492 c 3xd8
EndSplineSet
Validated: 1
EndChar

StartChar: o.sup
Encoding: 7506 7506 256
Width: 831
VWidth: 0
HStem: 881 91<283.382 548.439> 1494 91<283.382 548.439>
VStem: 79 94<1084.49 1381.51> 658 94<1084.49 1381.51>
AnchorPoint: "center" 416 1233 basechar 0
AnchorPoint: "top" 416 1698 basechar 0
LayerCount: 2
Fore
SplineSet
416 1494 m 3
 249 1494 173 1337 173 1233 c 3
 173 1129 249 972 416 972 c 3
 583 972 658 1129 658 1233 c 3
 658 1337 583 1494 416 1494 c 3
416 1585 m 3
 658 1585 752 1382 752 1233 c 3
 752 1084 658 881 416 881 c 3
 174 881 79 1084 79 1233 c 3
 79 1382 174 1585 416 1585 c 3
EndSplineSet
Validated: 1
EndChar

StartChar: currency
Encoding: 164 164 259
Width: 1280
VWidth: 0
Flags: W
HStem: -20 120<468.951 810.799> 900 120<468.951 810.502> 980 20G<165 330.738 947.262 1113>
VStem: 151 125<318.007 681.993> 1004 125<317.535 682.243>
LayerCount: 2
Fore
SplineSet
165 1000 m 1xb8
 315 1000 l 1xb8
 363 939 l 1
 435 989 526 1020 640 1020 c 3xd8
 753 1020 844 989 915 939 c 1
 963 1000 l 1
 1113 1000 l 1
 1002 860 l 1
 1090 755 1129 616 1129 500 c 3
 1129 384 1090 245 1002 140 c 1
 1113 0 l 1
 963 0 l 1
 916 61 l 1
 845 11 753 -20 640 -20 c 3
 526 -20 435 12 363 62 c 1
 315 0 l 1
 165 0 l 1
 277 141 l 1
 189 246 151 384 151 500 c 3
 151 616 189 754 277 859 c 1
 165 1000 l 1xb8
640 900 m 3xd8
 390 900 276 660 276 500 c 3
 276 340 390 100 640 100 c 3
 890 100 1004 339 1004 500 c 3
 1004 660 890 900 640 900 c 3xd8
EndSplineSet
Validated: 1
EndChar

StartChar: sterling
Encoding: 163 163 260
Width: 1280
VWidth: 0
Flags: W
HStem: 0 120<119 316.285 471 1161> 880 120<432 585 710 1058> 1461 125<786.866 1058>
VStem: 585 125<382.006 880 1000 1384.13>
LayerCount: 2
Fore
SplineSet
710 686 m 2
 710 661 710 526 700 472 c 0
 674 331 602 206 471 120 c 1
 1161 120 l 1
 1161 0 l 1
 119 0 l 1
 119 120 l 1
 346 120 530 272 575 486 c 0
 585 534 585 661 585 686 c 2
 585 880 l 1
 432 880 l 1
 432 1000 l 1
 585 1000 l 1
 585 1251 l 2
 585 1461 710 1586 920 1586 c 2
 1058 1586 l 1
 1058 1461 l 1
 920 1461 l 2
 815 1461 710 1402 710 1251 c 2
 710 1000 l 1
 1058 1000 l 1
 1058 880 l 1
 710 880 l 1
 710 686 l 2
EndSplineSet
Validated: 1
EndChar

StartChar: four.sub
Encoding: 8324 8324 261
Width: 864
VWidth: 0
HStem: -433 90<188 543 637 784>
VStem: 543 94<-702 -433 -343 204>
LayerCount: 2
Fore
SplineSet
784 -343 m 1
 784 -433 l 1
 637 -433 l 1
 636 -702 l 1
 542 -702 l 1
 543 -433 l 1
 88 -433 l 1
 88 -344 l 1
 544 348 l 1
 638 348 l 1
 637 -343 l 1
 784 -343 l 1
188 -343 m 1
 543 -343 l 1
 544 204 l 1
 188 -343 l 1
EndSplineSet
Validated: 1
EndChar

StartChar: three.sub
Encoding: 8323 8323 262
Width: 864
VWidth: 0
Flags: W
HStem: -719 91<111.932 567.492> -199 91<342 530.706> 271 91<158.929 522.01>
VStem: 614 94<-29.4073 186.884> 690 94<-523.174 -303.184>
LayerCount: 2
Fore
SplineSet
532 -146 m 1xf0
 713 -193 784 -318 784 -416 c 3
 784 -551 660 -719 347 -719 c 3
 262 -719 149 -701 78 -666 c 1
 113 -579 l 1
 174 -607 271 -628 344 -628 c 3
 603 -628 690 -505 690 -414 c 3xe8
 690 -323 604 -199 342 -199 c 1
 342 -108 l 1
 530 -108 614 -16 614 75 c 3
 614 166 537 271 342 271 c 3
 295 271 196 242 163 223 c 1
NamedP: "868, 174"
 131 310 l 1
 255 362 300 362 345 362 c 3
 586 362 708 212 708 78 c 3
 708 -8 655 -108 532 -146 c 1xf0
EndSplineSet
Validated: 1
Substitution2: "'subs' Subscript looup numerals" three.sub
EndChar

StartChar: two.sub
Encoding: 8322 8322 263
Width: 864
VWidth: 0
HStem: -703 91<190 771> 271 91<170.572 519.89>
VStem: 610 94<-92.8252 186.474>
LayerCount: 2
Fore
SplineSet
190 -612 m 1
 771 -612 l 1
 771 -703 l 1
 93 -703 l 1
 93 -614 l 1
 352 -220 610 -197 610 71 c 3
 610 163 536 271 347 271 c 3
 302 271 205 241 173 222 c 1
NamedP: "868, 174"
 143 310 l 1
 264 362 307 362 351 362 c 3
 586 362 704 213 704 80 c 3
 704 -238 428 -253 190 -612 c 1
EndSplineSet
Validated: 1
Substitution2: "'subs' Subscript looup numerals" two.sub
EndChar

StartChar: one.sub
Encoding: 8321 8321 264
Width: 864
VWidth: 0
Flags: W
HStem: -697 90<94 407 501 771>
VStem: 407 94<-607 245>
LayerCount: 2
Fore
SplineSet
501 -607 m 1
 771 -607 l 1
 771 -697 l 1
 94 -697 l 1
 94 -607 l 1
 407 -607 l 1
 407 245 l 1
 101 49 l 1
 101 141 l 1
 416 344 l 1
 501 344 l 1
 501 -607 l 1
EndSplineSet
Validated: 1
EndChar

StartChar: jdotless.1
Encoding: 57379 57379 268
Width: 447
VWidth: 0
Flags: W
HStem: 980 20G<161 286>
VStem: 161 125<-591 1000>
AnchorPoint: "bottom" 223 -591 basechar 0
LayerCount: 2
Fore
SplineSet
161 -591 m 9
 161 1000 l 1
 286 1000 l 1
 286 -591 l 17
 161 -591 l 9
EndSplineSet
Validated: 1
EndChar

StartChar: hyphenminus
Encoding: 45 45 269
Width: 822
VWidth: 0
Flags: W
HStem: 500 120<161 661>
VStem: 161 500<500 620>
LayerCount: 2
Fore
SplineSet
161 620 m 1
 661 620 l 1
 661 500 l 1
 161 500 l 1
 161 620 l 1
EndSplineSet
Validated: 1
EndChar

StartChar: hyphen
Encoding: 8208 8208 270
Width: 822
VWidth: 0
Flags: W
HStem: 500 120<161 661>
VStem: 161 500<500 620>
LayerCount: 2
Fore
SplineSet
161 620 m 1
 661 620 l 1
 661 500 l 1
 161 500 l 1
 161 620 l 1
EndSplineSet
Validated: 1
EndChar

StartChar: nobreakhyphen
Encoding: 8209 8209 271
Width: 822
VWidth: 0
Flags: W
HStem: 500 120<161 661>
VStem: 161 500<500 620>
LayerCount: 2
Fore
SplineSet
161 620 m 1
 661 620 l 1
 661 500 l 1
 161 500 l 1
 161 620 l 1
EndSplineSet
Validated: 1
EndChar

StartChar: figuredash
Encoding: 8210 8210 272
Width: 960
VWidth: 0
Flags: W
HStem: 500 120<120 840>
LayerCount: 2
Fore
SplineSet
120 620 m 1
 840 620 l 1
 840 500 l 1
 120 500 l 1
 120 620 l 1
EndSplineSet
Validated: 1
EndChar

StartChar: I.1
Encoding: 57393 57393 273
Width: 527
VWidth: 0
Flags: W
HStem: 0 120<61 201 326 466> 1446 120<61 201 326 466>
VStem: 61 405<0 120 1446 1566> 201 125<120 1446>
AnchorPoint: "top" 263 1706 basechar 0
AnchorPoint: "bottom" 263 0 basechar 0
LayerCount: 2
Fore
SplineSet
61 0 m 1xe0
 61 120 l 1xe0
 201 120 l 1
 201 1446 l 1xd0
 61 1446 l 1
 61 1566 l 1xe0
 201 1566 l 1
 326 1566 l 1xd0
 466 1566 l 1
 466 1446 l 1xe0
 326 1446 l 1
 326 120 l 1xd0
 466 120 l 1
 466 0 l 1xe0
 326 0 l 1
 201 0 l 1xd0
 61 0 l 1xe0
EndSplineSet
Validated: 1
EndChar
